%TF.GenerationSoftware,KiCad,Pcbnew,(6.99.0)*%
%TF.CreationDate,2022-05-24T21:05:52-07:00*%
%TF.ProjectId,Card,43617264-2e6b-4696-9361-645f70636258,rev?*%
%TF.SameCoordinates,Original*%
%TF.FileFunction,Copper,L2,Bot*%
%TF.FilePolarity,Positive*%
%FSLAX46Y46*%
G04 Gerber Fmt 4.6, Leading zero omitted, Abs format (unit mm)*
G04 Created by KiCad (PCBNEW (6.99.0)) date 2022-05-24 21:05:52*
%MOMM*%
%LPD*%
G01*
G04 APERTURE LIST*
%TA.AperFunction,EtchedComponent*%
%ADD10C,0.300000*%
%TD*%
%TA.AperFunction,ComponentPad*%
%ADD11C,0.808000*%
%TD*%
%TA.AperFunction,ViaPad*%
%ADD12C,0.800000*%
%TD*%
%TA.AperFunction,Conductor*%
%ADD13C,0.200000*%
%TD*%
G04 APERTURE END LIST*
D10*
%TO.C,U2*%
X111358000Y-53216000D02*
G75*
G03*
X108658000Y-55916000I1J-2700001D01*
G01*
X111358000Y-54416000D02*
G75*
G03*
X109858000Y-55916000I1J-1500001D01*
G01*
X111358000Y-55616000D02*
G75*
G03*
X111058000Y-55916000I0J-300000D01*
G01*
X111358000Y-55016000D02*
G75*
G03*
X110458000Y-55916000I0J-900000D01*
G01*
X130958000Y-100016000D02*
G75*
G03*
X132458000Y-98516000I-1J1500001D01*
G01*
X111358000Y-53816000D02*
G75*
G03*
X109258000Y-55916000I1J-2100001D01*
G01*
X131258000Y-55916000D02*
G75*
G03*
X130958000Y-55616000I-300000J0D01*
G01*
X131858000Y-55916000D02*
G75*
G03*
X130958000Y-55016000I-900000J0D01*
G01*
X109858000Y-98516000D02*
G75*
G03*
X111358000Y-100016000I1500001J1D01*
G01*
X130958000Y-101216000D02*
G75*
G03*
X133658000Y-98516000I-1J2700001D01*
G01*
X133058000Y-55916000D02*
G75*
G03*
X130958000Y-53816000I-2100001J-1D01*
G01*
X130958000Y-99416000D02*
G75*
G03*
X131858000Y-98516000I0J900000D01*
G01*
X111058000Y-98516000D02*
G75*
G03*
X111358000Y-98816000I300000J0D01*
G01*
X132458000Y-55916000D02*
G75*
G03*
X130958000Y-54416000I-1500001J-1D01*
G01*
X133658000Y-55916000D02*
G75*
G03*
X130958000Y-53216000I-2700001J-1D01*
G01*
X108658000Y-98516000D02*
G75*
G03*
X111358000Y-101216000I2700001J1D01*
G01*
X130958000Y-98816000D02*
G75*
G03*
X131258000Y-98516000I0J300000D01*
G01*
X110458000Y-98516000D02*
G75*
G03*
X111358000Y-99416000I900000J0D01*
G01*
X109258000Y-98516000D02*
G75*
G03*
X111358000Y-100616000I2100001J1D01*
G01*
X130958000Y-100616000D02*
G75*
G03*
X133058000Y-98516000I-1J2100001D01*
G01*
X111358000Y-101216000D02*
X130958000Y-101216000D01*
X109258000Y-55916000D02*
X109258000Y-76616000D01*
X131258000Y-55916000D02*
X131258000Y-98516000D01*
X111358000Y-55016000D02*
X130958000Y-55016000D01*
X110458000Y-55916000D02*
X110458000Y-77016000D01*
X108658000Y-76416000D02*
X108658000Y-55916000D01*
X132458000Y-55916000D02*
X132458000Y-98516000D01*
X131858000Y-55916000D02*
X131858000Y-98516000D01*
X109858000Y-76816000D02*
X109258000Y-77416000D01*
X108658000Y-77216000D02*
X108658000Y-98516000D01*
X111358000Y-54416000D02*
X130958000Y-54416000D01*
X111358000Y-53216000D02*
X130958000Y-53216000D01*
X109858000Y-55916000D02*
X109858000Y-76816000D01*
X109258000Y-76616000D02*
X108658000Y-77216000D01*
X111358000Y-55616000D02*
X130958000Y-55616000D01*
X110458000Y-98516000D02*
X110458000Y-77816000D01*
X133058000Y-55916000D02*
X133058000Y-98516000D01*
X110458000Y-77016000D02*
X109858000Y-77616000D01*
X111358000Y-98816000D02*
X130958000Y-98816000D01*
X107823000Y-76581000D02*
X108493000Y-76581000D01*
X109858000Y-77616000D02*
X109858000Y-98516000D01*
X111358000Y-100616000D02*
X130958000Y-100616000D01*
X111058000Y-77216000D02*
X110458000Y-77816000D01*
X108493000Y-76581000D02*
X108658000Y-76416000D01*
X111358000Y-99416000D02*
X130958000Y-99416000D01*
X111633000Y-77851000D02*
X111223000Y-77851000D01*
X111358000Y-100016000D02*
X130958000Y-100016000D01*
X111358000Y-53816000D02*
X130958000Y-53816000D01*
X109258000Y-77416000D02*
X109258000Y-98516000D01*
X111223000Y-77851000D02*
X111058000Y-78016000D01*
X111058000Y-98516000D02*
X111058000Y-78016000D01*
X133658000Y-55916000D02*
X133658000Y-98516000D01*
X111058000Y-55916000D02*
X111058000Y-77216000D01*
%TD*%
D11*
%TO.P,U2,P$2*%
%TO.N,Net-(U1-Pad8)*%
X111633000Y-77851000D03*
%TO.P,U2,P$1*%
%TO.N,Net-(U1-Pad1)*%
X107823000Y-76581000D03*
%TD*%
D12*
%TO.N,Net-(D1-Pad2)*%
X101092000Y-80264000D03*
X55372000Y-52832000D03*
%TO.N,Net-(C1-Pad2)*%
X53340000Y-57150000D03*
X99822000Y-79502000D03*
%TD*%
D13*
%TO.N,Net-(D1-Pad2)*%
X100838000Y-80518000D02*
X101092000Y-80264000D01*
X52578000Y-75946000D02*
X57150000Y-80518000D01*
X52578000Y-53340000D02*
X52578000Y-75946000D01*
X53086000Y-52832000D02*
X52578000Y-53340000D01*
X55372000Y-52832000D02*
X53086000Y-52832000D01*
X57150000Y-80518000D02*
X100838000Y-80518000D01*
%TO.N,Net-(C1-Pad2)*%
X55372000Y-77470000D02*
X57404000Y-79502000D01*
X57404000Y-79502000D02*
X99568000Y-79502000D01*
X53340000Y-75438000D02*
X55372000Y-77470000D01*
X99568000Y-79502000D02*
X99822000Y-79502000D01*
X53340000Y-57150000D02*
X53340000Y-75438000D01*
%TD*%
%TA.AperFunction,Conductor*%
%TO.N,Net-(C1-Pad2)*%
G36*
X105860121Y-53106002D02*
G01*
X105906614Y-53159658D01*
X105918000Y-53212000D01*
X105918000Y-101474000D01*
X105897998Y-101542121D01*
X105844342Y-101588614D01*
X105792000Y-101600000D01*
X52450000Y-101600000D01*
X52381879Y-101579998D01*
X52335386Y-101526342D01*
X52324000Y-101474000D01*
X52324000Y-76677134D01*
X52344002Y-76609013D01*
X52397658Y-76562520D01*
X52467932Y-76552416D01*
X52532512Y-76581910D01*
X52539095Y-76588039D01*
X56761412Y-80810356D01*
X56768499Y-80819226D01*
X56768941Y-80818850D01*
X56774757Y-80825683D01*
X56779549Y-80833279D01*
X56817602Y-80866886D01*
X56823274Y-80872218D01*
X56833973Y-80882917D01*
X56841688Y-80888699D01*
X56849525Y-80895081D01*
X56876194Y-80918634D01*
X56876200Y-80918638D01*
X56882927Y-80924579D01*
X56891053Y-80928394D01*
X56895850Y-80931545D01*
X56904160Y-80936538D01*
X56909208Y-80939302D01*
X56916395Y-80944688D01*
X56924805Y-80947841D01*
X56924807Y-80947842D01*
X56958122Y-80960332D01*
X56967435Y-80964256D01*
X57007775Y-80983195D01*
X57016648Y-80984576D01*
X57022152Y-80986259D01*
X57031507Y-80988713D01*
X57037131Y-80989950D01*
X57045542Y-80993103D01*
X57054500Y-80993769D01*
X57054501Y-80993769D01*
X57089979Y-80996406D01*
X57100008Y-80997557D01*
X57112491Y-80999500D01*
X57126949Y-80999500D01*
X57136287Y-80999847D01*
X57174132Y-81002660D01*
X57174135Y-81002660D01*
X57183086Y-81003325D01*
X57191865Y-81001451D01*
X57200822Y-81000840D01*
X57200828Y-81000922D01*
X57214301Y-80999500D01*
X100769956Y-80999500D01*
X100781239Y-81000761D01*
X100781285Y-81000183D01*
X100790233Y-81000903D01*
X100798988Y-81002884D01*
X100807948Y-81002328D01*
X100816893Y-81003048D01*
X100816789Y-81004340D01*
X100856327Y-81010195D01*
X100872270Y-81016124D01*
X100895145Y-81024631D01*
X100895148Y-81024632D01*
X100901742Y-81027084D01*
X100934128Y-81031405D01*
X101068549Y-81049342D01*
X101068553Y-81049342D01*
X101075530Y-81050273D01*
X101082541Y-81049635D01*
X101082545Y-81049635D01*
X101220105Y-81037115D01*
X101250137Y-81034382D01*
X101256839Y-81032204D01*
X101256841Y-81032204D01*
X101410185Y-80982380D01*
X101410188Y-80982379D01*
X101416884Y-80980203D01*
X101567484Y-80890427D01*
X101572578Y-80885576D01*
X101572582Y-80885573D01*
X101651567Y-80810356D01*
X101694452Y-80769517D01*
X101791477Y-80623482D01*
X101853737Y-80459581D01*
X101878138Y-80285959D01*
X101878445Y-80264000D01*
X101858901Y-80089764D01*
X101833388Y-80016498D01*
X101803557Y-79930835D01*
X101803556Y-79930833D01*
X101801242Y-79924188D01*
X101708332Y-79775501D01*
X101699835Y-79766944D01*
X101589754Y-79656094D01*
X101584789Y-79651094D01*
X101578846Y-79647322D01*
X101578843Y-79647320D01*
X101497270Y-79595552D01*
X101436755Y-79557148D01*
X101409570Y-79547468D01*
X101278220Y-79500696D01*
X101278215Y-79500695D01*
X101271585Y-79498334D01*
X101264597Y-79497501D01*
X101264594Y-79497500D01*
X101144307Y-79483157D01*
X101097490Y-79477574D01*
X101090487Y-79478310D01*
X101090486Y-79478310D01*
X100930122Y-79495165D01*
X100930120Y-79495166D01*
X100923122Y-79495901D01*
X100757148Y-79552403D01*
X100743296Y-79560925D01*
X100613823Y-79640577D01*
X100613820Y-79640579D01*
X100607816Y-79644273D01*
X100602781Y-79649204D01*
X100602778Y-79649206D01*
X100487581Y-79762016D01*
X100482549Y-79766944D01*
X100387572Y-79914319D01*
X100381561Y-79930835D01*
X100373277Y-79953595D01*
X100331183Y-80010766D01*
X100264861Y-80036104D01*
X100254876Y-80036500D01*
X57401633Y-80036500D01*
X57333512Y-80016498D01*
X57312538Y-79999595D01*
X53096405Y-75783461D01*
X53062379Y-75721149D01*
X53059500Y-75694366D01*
X53059500Y-53591634D01*
X53079502Y-53523513D01*
X53096405Y-53502539D01*
X53248539Y-53350405D01*
X53310851Y-53316379D01*
X53337634Y-53313500D01*
X54697021Y-53313500D01*
X54765142Y-53333502D01*
X54787659Y-53351973D01*
X54870701Y-53437966D01*
X54876593Y-53441821D01*
X54876597Y-53441825D01*
X54961457Y-53497355D01*
X55017410Y-53533970D01*
X55024014Y-53536426D01*
X55175140Y-53592629D01*
X55175142Y-53592629D01*
X55181742Y-53595084D01*
X55188725Y-53596016D01*
X55188726Y-53596016D01*
X55348549Y-53617342D01*
X55348553Y-53617342D01*
X55355530Y-53618273D01*
X55362541Y-53617635D01*
X55362545Y-53617635D01*
X55500105Y-53605115D01*
X55530137Y-53602382D01*
X55536839Y-53600204D01*
X55536841Y-53600204D01*
X55690185Y-53550380D01*
X55690188Y-53550379D01*
X55696884Y-53548203D01*
X55847484Y-53458427D01*
X55852578Y-53453576D01*
X55852582Y-53453573D01*
X55937101Y-53373086D01*
X55974452Y-53337517D01*
X56071477Y-53191482D01*
X56073980Y-53184893D01*
X56073982Y-53184889D01*
X56080681Y-53167255D01*
X56123570Y-53110677D01*
X56190239Y-53086269D01*
X56198468Y-53086000D01*
X105792000Y-53086000D01*
X105860121Y-53106002D01*
G37*
%TD.AperFunction*%
%TD*%
M02*
