%TF.GenerationSoftware,KiCad,Pcbnew,(6.99.0)*%
%TF.CreationDate,2022-05-24T21:05:52-07:00*%
%TF.ProjectId,Card,43617264-2e6b-4696-9361-645f70636258,rev?*%
%TF.SameCoordinates,Original*%
%TF.FileFunction,Legend,Top*%
%TF.FilePolarity,Positive*%
%FSLAX46Y46*%
G04 Gerber Fmt 4.6, Leading zero omitted, Abs format (unit mm)*
G04 Created by KiCad (PCBNEW (6.99.0)) date 2022-05-24 21:05:52*
%MOMM*%
%LPD*%
G01*
G04 APERTURE LIST*
%ADD10C,0.600000*%
%ADD11C,0.200000*%
%ADD12C,0.120000*%
%ADD13C,0.127000*%
G04 APERTURE END LIST*
D10*
X55397500Y-56388000D02*
X55397500Y-58928000D01*
D11*
X81280000Y-97790000D02*
X105156000Y-97790000D01*
X86037523Y-96600095D02*
X86037523Y-95733428D01*
X86037523Y-95857238D02*
X86099428Y-95795333D01*
X86223238Y-95733428D01*
X86408952Y-95733428D01*
X86532761Y-95795333D01*
X86594666Y-95919142D01*
X86594666Y-96600095D01*
X86594666Y-95919142D02*
X86656571Y-95795333D01*
X86780380Y-95733428D01*
X86966095Y-95733428D01*
X87089904Y-95795333D01*
X87151809Y-95919142D01*
X87151809Y-96600095D01*
X88328000Y-96600095D02*
X88328000Y-95919142D01*
X88266095Y-95795333D01*
X88142285Y-95733428D01*
X87894666Y-95733428D01*
X87770857Y-95795333D01*
X88328000Y-96538190D02*
X88204190Y-96600095D01*
X87894666Y-96600095D01*
X87770857Y-96538190D01*
X87708952Y-96414380D01*
X87708952Y-96290571D01*
X87770857Y-96166761D01*
X87894666Y-96104857D01*
X88204190Y-96104857D01*
X88328000Y-96042952D01*
X88947047Y-96600095D02*
X88947047Y-95300095D01*
X89070857Y-96104857D02*
X89442285Y-96600095D01*
X89442285Y-95733428D02*
X88947047Y-96228666D01*
X89999428Y-96600095D02*
X89999428Y-95733428D01*
X89999428Y-95300095D02*
X89937523Y-95362000D01*
X89999428Y-95423904D01*
X90061333Y-95362000D01*
X89999428Y-95300095D01*
X89999428Y-95423904D01*
X90618476Y-95733428D02*
X90618476Y-96600095D01*
X90618476Y-95857238D02*
X90680380Y-95795333D01*
X90804190Y-95733428D01*
X90989904Y-95733428D01*
X91113714Y-95795333D01*
X91175619Y-95919142D01*
X91175619Y-96600095D01*
X92351809Y-95733428D02*
X92351809Y-96785809D01*
X92289904Y-96909619D01*
X92228000Y-96971523D01*
X92104190Y-97033428D01*
X91918476Y-97033428D01*
X91794666Y-96971523D01*
X92351809Y-96538190D02*
X92228000Y-96600095D01*
X91980380Y-96600095D01*
X91856571Y-96538190D01*
X91794666Y-96476285D01*
X91732761Y-96352476D01*
X91732761Y-95981047D01*
X91794666Y-95857238D01*
X91856571Y-95795333D01*
X91980380Y-95733428D01*
X92228000Y-95733428D01*
X92351809Y-95795333D01*
X94518476Y-96538190D02*
X94394666Y-96600095D01*
X94147047Y-96600095D01*
X94023238Y-96538190D01*
X93961333Y-96476285D01*
X93899428Y-96352476D01*
X93899428Y-95981047D01*
X93961333Y-95857238D01*
X94023238Y-95795333D01*
X94147047Y-95733428D01*
X94394666Y-95733428D01*
X94518476Y-95795333D01*
X94951809Y-95733428D02*
X95261333Y-96600095D01*
X95570857Y-95733428D02*
X95261333Y-96600095D01*
X95137523Y-96909619D01*
X95075619Y-96971523D01*
X94951809Y-97033428D01*
X96066095Y-96600095D02*
X96066095Y-95300095D01*
X96066095Y-95795333D02*
X96189904Y-95733428D01*
X96437523Y-95733428D01*
X96561333Y-95795333D01*
X96623238Y-95857238D01*
X96685142Y-95981047D01*
X96685142Y-96352476D01*
X96623238Y-96476285D01*
X96561333Y-96538190D01*
X96437523Y-96600095D01*
X96189904Y-96600095D01*
X96066095Y-96538190D01*
X97428000Y-96600095D02*
X97304190Y-96538190D01*
X97242285Y-96476285D01*
X97180380Y-96352476D01*
X97180380Y-95981047D01*
X97242285Y-95857238D01*
X97304190Y-95795333D01*
X97428000Y-95733428D01*
X97613714Y-95733428D01*
X97737523Y-95795333D01*
X97799428Y-95857238D01*
X97861333Y-95981047D01*
X97861333Y-96352476D01*
X97799428Y-96476285D01*
X97737523Y-96538190D01*
X97613714Y-96600095D01*
X97428000Y-96600095D01*
X98418476Y-96600095D02*
X98418476Y-95733428D01*
X98418476Y-95981047D02*
X98480380Y-95857238D01*
X98542285Y-95795333D01*
X98666095Y-95733428D01*
X98789904Y-95733428D01*
X99780380Y-95733428D02*
X99780380Y-96785809D01*
X99718476Y-96909619D01*
X99656571Y-96971523D01*
X99532761Y-97033428D01*
X99347047Y-97033428D01*
X99223238Y-96971523D01*
X99780380Y-96538190D02*
X99656571Y-96600095D01*
X99408952Y-96600095D01*
X99285142Y-96538190D01*
X99223238Y-96476285D01*
X99161333Y-96352476D01*
X99161333Y-95981047D01*
X99223238Y-95857238D01*
X99285142Y-95795333D01*
X99408952Y-95733428D01*
X99656571Y-95733428D01*
X99780380Y-95795333D01*
X100337523Y-96538190D02*
X100461333Y-96600095D01*
X100708952Y-96600095D01*
X100832761Y-96538190D01*
X100894666Y-96414380D01*
X100894666Y-96352476D01*
X100832761Y-96228666D01*
X100708952Y-96166761D01*
X100523238Y-96166761D01*
X100399428Y-96104857D01*
X100337523Y-95981047D01*
X100337523Y-95919142D01*
X100399428Y-95795333D01*
X100523238Y-95733428D01*
X100708952Y-95733428D01*
X100832761Y-95795333D01*
D10*
X57002928Y-56292857D02*
X57002928Y-58959523D01*
X57002928Y-56673809D02*
X57145785Y-56483333D01*
X57431500Y-56292857D01*
X57860071Y-56292857D01*
X58145785Y-56483333D01*
X58288642Y-56864285D01*
X58288642Y-58959523D01*
X61002928Y-56292857D02*
X61002928Y-59530952D01*
X60860071Y-59911904D01*
X60717214Y-60102380D01*
X60431500Y-60292857D01*
X60002928Y-60292857D01*
X59717214Y-60102380D01*
X61002928Y-58769047D02*
X60717214Y-58959523D01*
X60145785Y-58959523D01*
X59860071Y-58769047D01*
X59717214Y-58578571D01*
X59574357Y-58197619D01*
X59574357Y-57054761D01*
X59717214Y-56673809D01*
X59860071Y-56483333D01*
X60145785Y-56292857D01*
X60717214Y-56292857D01*
X61002928Y-56483333D01*
X63717214Y-58959523D02*
X63717214Y-56864285D01*
X63574357Y-56483333D01*
X63288642Y-56292857D01*
X62717214Y-56292857D01*
X62431500Y-56483333D01*
X63717214Y-58769047D02*
X63431500Y-58959523D01*
X62717214Y-58959523D01*
X62431500Y-58769047D01*
X62288642Y-58388095D01*
X62288642Y-58007142D01*
X62431500Y-57626190D01*
X62717214Y-57435714D01*
X63431500Y-57435714D01*
X63717214Y-57245238D01*
X67145785Y-56292857D02*
X68717214Y-56292857D01*
X67145785Y-58959523D01*
X68717214Y-58959523D01*
X69860071Y-58959523D02*
X69860071Y-54959523D01*
X71145785Y-58959523D02*
X71145785Y-56864285D01*
X71002928Y-56483333D01*
X70717214Y-56292857D01*
X70288642Y-56292857D01*
X70002928Y-56483333D01*
X69860071Y-56673809D01*
X73860071Y-56292857D02*
X73860071Y-58959523D01*
X72574357Y-56292857D02*
X72574357Y-58388095D01*
X72717214Y-58769047D01*
X73002928Y-58959523D01*
X73431500Y-58959523D01*
X73717214Y-58769047D01*
X73860071Y-58578571D01*
X75288642Y-58959523D02*
X75288642Y-56292857D01*
X75288642Y-57054761D02*
X75431500Y-56673809D01*
X75574357Y-56483333D01*
X75860071Y-56292857D01*
X76145785Y-56292857D01*
X78431500Y-58959523D02*
X78431500Y-56864285D01*
X78288642Y-56483333D01*
X78002928Y-56292857D01*
X77431500Y-56292857D01*
X77145785Y-56483333D01*
X78431500Y-58769047D02*
X78145785Y-58959523D01*
X77431500Y-58959523D01*
X77145785Y-58769047D01*
X77002928Y-58388095D01*
X77002928Y-58007142D01*
X77145785Y-57626190D01*
X77431500Y-57435714D01*
X78145785Y-57435714D01*
X78431500Y-57245238D01*
X79574357Y-56292857D02*
X80288642Y-58959523D01*
X81002928Y-56292857D01*
X82574357Y-58959523D02*
X82288642Y-58769047D01*
X82145785Y-58388095D01*
X82145785Y-54959523D01*
X84860071Y-58769047D02*
X84574357Y-58959523D01*
X84002928Y-58959523D01*
X83717214Y-58769047D01*
X83574357Y-58388095D01*
X83574357Y-56864285D01*
X83717214Y-56483333D01*
X84002928Y-56292857D01*
X84574357Y-56292857D01*
X84860071Y-56483333D01*
X85002928Y-56864285D01*
X85002928Y-57245238D01*
X83574357Y-57626190D01*
X86002928Y-56292857D02*
X86717214Y-58959523D01*
X87431500Y-56292857D01*
X89860071Y-58959523D02*
X89860071Y-56864285D01*
X89717214Y-56483333D01*
X89431500Y-56292857D01*
X88860071Y-56292857D01*
X88574357Y-56483333D01*
X89860071Y-58769047D02*
X89574357Y-58959523D01*
X88860071Y-58959523D01*
X88574357Y-58769047D01*
X88431500Y-58388095D01*
X88431500Y-58007142D01*
X88574357Y-57626190D01*
X88860071Y-57435714D01*
X89574357Y-57435714D01*
X89860071Y-57245238D01*
D11*
X55396380Y-63346142D02*
X55829714Y-63346142D01*
X55930309Y-64027095D02*
X55311261Y-64027095D01*
X55473761Y-62727095D01*
X56092809Y-62727095D01*
X56673166Y-64027095D02*
X56557095Y-63965190D01*
X56510666Y-63841380D01*
X56649952Y-62727095D01*
X57671380Y-63965190D02*
X57539833Y-64027095D01*
X57292214Y-64027095D01*
X57176142Y-63965190D01*
X57129714Y-63841380D01*
X57191619Y-63346142D01*
X57269000Y-63222333D01*
X57400547Y-63160428D01*
X57648166Y-63160428D01*
X57764238Y-63222333D01*
X57810666Y-63346142D01*
X57795190Y-63469952D01*
X57160666Y-63593761D01*
X58847571Y-63965190D02*
X58716023Y-64027095D01*
X58468404Y-64027095D01*
X58352333Y-63965190D01*
X58298166Y-63903285D01*
X58251738Y-63779476D01*
X58298166Y-63408047D01*
X58375547Y-63284238D01*
X58445190Y-63222333D01*
X58576738Y-63160428D01*
X58824357Y-63160428D01*
X58940428Y-63222333D01*
X59319595Y-63160428D02*
X59814833Y-63160428D01*
X59559476Y-62727095D02*
X59420190Y-63841380D01*
X59466619Y-63965190D01*
X59582690Y-64027095D01*
X59706500Y-64027095D01*
X60139833Y-64027095D02*
X60248166Y-63160428D01*
X60217214Y-63408047D02*
X60294595Y-63284238D01*
X60364238Y-63222333D01*
X60495785Y-63160428D01*
X60619595Y-63160428D01*
X60944595Y-64027095D02*
X61052928Y-63160428D01*
X61107095Y-62727095D02*
X61037452Y-62789000D01*
X61091619Y-62850904D01*
X61161261Y-62789000D01*
X61107095Y-62727095D01*
X61091619Y-62850904D01*
X62128523Y-63965190D02*
X61996976Y-64027095D01*
X61749357Y-64027095D01*
X61633285Y-63965190D01*
X61579119Y-63903285D01*
X61532690Y-63779476D01*
X61579119Y-63408047D01*
X61656500Y-63284238D01*
X61726142Y-63222333D01*
X61857690Y-63160428D01*
X62105309Y-63160428D01*
X62221380Y-63222333D01*
X63235071Y-64027095D02*
X63320190Y-63346142D01*
X63273761Y-63222333D01*
X63157690Y-63160428D01*
X62910071Y-63160428D01*
X62778523Y-63222333D01*
X63242809Y-63965190D02*
X63111261Y-64027095D01*
X62801738Y-64027095D01*
X62685666Y-63965190D01*
X62639238Y-63841380D01*
X62654714Y-63717571D01*
X62732095Y-63593761D01*
X62863642Y-63531857D01*
X63173166Y-63531857D01*
X63304714Y-63469952D01*
X64039833Y-64027095D02*
X63923761Y-63965190D01*
X63877333Y-63841380D01*
X64016619Y-62727095D01*
X65610666Y-63346142D02*
X66044000Y-63346142D01*
X66144595Y-64027095D02*
X65525547Y-64027095D01*
X65688047Y-62727095D01*
X66307095Y-62727095D01*
X66810071Y-63160428D02*
X66701738Y-64027095D01*
X66794595Y-63284238D02*
X66864238Y-63222333D01*
X66995785Y-63160428D01*
X67181500Y-63160428D01*
X67297571Y-63222333D01*
X67344000Y-63346142D01*
X67258880Y-64027095D01*
X68543404Y-63160428D02*
X68411857Y-64212809D01*
X68334476Y-64336619D01*
X68264833Y-64398523D01*
X68133285Y-64460428D01*
X67947571Y-64460428D01*
X67831500Y-64398523D01*
X68442809Y-63965190D02*
X68311261Y-64027095D01*
X68063642Y-64027095D01*
X67947571Y-63965190D01*
X67893404Y-63903285D01*
X67846976Y-63779476D01*
X67893404Y-63408047D01*
X67970785Y-63284238D01*
X68040428Y-63222333D01*
X68171976Y-63160428D01*
X68419595Y-63160428D01*
X68535666Y-63222333D01*
X69054119Y-64027095D02*
X69162452Y-63160428D01*
X69216619Y-62727095D02*
X69146976Y-62789000D01*
X69201142Y-62850904D01*
X69270785Y-62789000D01*
X69216619Y-62727095D01*
X69201142Y-62850904D01*
X69781500Y-63160428D02*
X69673166Y-64027095D01*
X69766023Y-63284238D02*
X69835666Y-63222333D01*
X69967214Y-63160428D01*
X70152928Y-63160428D01*
X70269000Y-63222333D01*
X70315428Y-63346142D01*
X70230309Y-64027095D01*
X71352333Y-63965190D02*
X71220785Y-64027095D01*
X70973166Y-64027095D01*
X70857095Y-63965190D01*
X70810666Y-63841380D01*
X70872571Y-63346142D01*
X70949952Y-63222333D01*
X71081500Y-63160428D01*
X71329119Y-63160428D01*
X71445190Y-63222333D01*
X71491619Y-63346142D01*
X71476142Y-63469952D01*
X70841619Y-63593761D01*
X72466619Y-63965190D02*
X72335071Y-64027095D01*
X72087452Y-64027095D01*
X71971380Y-63965190D01*
X71924952Y-63841380D01*
X71986857Y-63346142D01*
X72064238Y-63222333D01*
X72195785Y-63160428D01*
X72443404Y-63160428D01*
X72559476Y-63222333D01*
X72605904Y-63346142D01*
X72590428Y-63469952D01*
X71955904Y-63593761D01*
X73077928Y-64027095D02*
X73186261Y-63160428D01*
X73155309Y-63408047D02*
X73232690Y-63284238D01*
X73302333Y-63222333D01*
X73433880Y-63160428D01*
X73557690Y-63160428D01*
X73882690Y-64027095D02*
X73991023Y-63160428D01*
X74045190Y-62727095D02*
X73975547Y-62789000D01*
X74029714Y-62850904D01*
X74099357Y-62789000D01*
X74045190Y-62727095D01*
X74029714Y-62850904D01*
X74610071Y-63160428D02*
X74501738Y-64027095D01*
X74594595Y-63284238D02*
X74664238Y-63222333D01*
X74795785Y-63160428D01*
X74981500Y-63160428D01*
X75097571Y-63222333D01*
X75144000Y-63346142D01*
X75058880Y-64027095D01*
X76343404Y-63160428D02*
X76211857Y-64212809D01*
X76134476Y-64336619D01*
X76064833Y-64398523D01*
X75933285Y-64460428D01*
X75747571Y-64460428D01*
X75631500Y-64398523D01*
X76242809Y-63965190D02*
X76111261Y-64027095D01*
X75863642Y-64027095D01*
X75747571Y-63965190D01*
X75693404Y-63903285D01*
X75646976Y-63779476D01*
X75693404Y-63408047D01*
X75770785Y-63284238D01*
X75840428Y-63222333D01*
X75971976Y-63160428D01*
X76219595Y-63160428D01*
X76335666Y-63222333D01*
X78896976Y-64027095D02*
X78835071Y-64027095D01*
X78719000Y-63965190D01*
X78556500Y-63779476D01*
X78293404Y-63408047D01*
X78192809Y-63222333D01*
X78154119Y-63036619D01*
X78169595Y-62912809D01*
X78246976Y-62789000D01*
X78378523Y-62727095D01*
X78440428Y-62727095D01*
X78556500Y-62789000D01*
X78602928Y-62912809D01*
X78595190Y-62974714D01*
X78517809Y-63098523D01*
X78448166Y-63160428D01*
X78045785Y-63408047D01*
X77976142Y-63469952D01*
X77898761Y-63593761D01*
X77875547Y-63779476D01*
X77921976Y-63903285D01*
X77976142Y-63965190D01*
X78092214Y-64027095D01*
X78277928Y-64027095D01*
X78409476Y-63965190D01*
X78479119Y-63903285D01*
X78695785Y-63655666D01*
X78780904Y-63469952D01*
X78796380Y-63346142D01*
X81202928Y-63903285D02*
X81133285Y-63965190D01*
X80939833Y-64027095D01*
X80816023Y-64027095D01*
X80638047Y-63965190D01*
X80529714Y-63841380D01*
X80483285Y-63717571D01*
X80452333Y-63469952D01*
X80475547Y-63284238D01*
X80568404Y-63036619D01*
X80645785Y-62912809D01*
X80785071Y-62789000D01*
X80978523Y-62727095D01*
X81102333Y-62727095D01*
X81280309Y-62789000D01*
X81334476Y-62850904D01*
X81930309Y-64027095D02*
X81814238Y-63965190D01*
X81760071Y-63903285D01*
X81713642Y-63779476D01*
X81760071Y-63408047D01*
X81837452Y-63284238D01*
X81907095Y-63222333D01*
X82038642Y-63160428D01*
X82224357Y-63160428D01*
X82340428Y-63222333D01*
X82394595Y-63284238D01*
X82441023Y-63408047D01*
X82394595Y-63779476D01*
X82317214Y-63903285D01*
X82247571Y-63965190D01*
X82116023Y-64027095D01*
X81930309Y-64027095D01*
X82920785Y-64027095D02*
X83029119Y-63160428D01*
X83013642Y-63284238D02*
X83083285Y-63222333D01*
X83214833Y-63160428D01*
X83400547Y-63160428D01*
X83516619Y-63222333D01*
X83563047Y-63346142D01*
X83477928Y-64027095D01*
X83563047Y-63346142D02*
X83640428Y-63222333D01*
X83771976Y-63160428D01*
X83957690Y-63160428D01*
X84073761Y-63222333D01*
X84120190Y-63346142D01*
X84035071Y-64027095D01*
X84762452Y-63160428D02*
X84599952Y-64460428D01*
X84754714Y-63222333D02*
X84886261Y-63160428D01*
X85133880Y-63160428D01*
X85249952Y-63222333D01*
X85304119Y-63284238D01*
X85350547Y-63408047D01*
X85304119Y-63779476D01*
X85226738Y-63903285D01*
X85157095Y-63965190D01*
X85025547Y-64027095D01*
X84777928Y-64027095D01*
X84661857Y-63965190D01*
X86495785Y-63160428D02*
X86387452Y-64027095D01*
X85938642Y-63160428D02*
X85853523Y-63841380D01*
X85899952Y-63965190D01*
X86016023Y-64027095D01*
X86201738Y-64027095D01*
X86333285Y-63965190D01*
X86402928Y-63903285D01*
X86929119Y-63160428D02*
X87424357Y-63160428D01*
X87169000Y-62727095D02*
X87029714Y-63841380D01*
X87076142Y-63965190D01*
X87192214Y-64027095D01*
X87316023Y-64027095D01*
X88252333Y-63965190D02*
X88120785Y-64027095D01*
X87873166Y-64027095D01*
X87757095Y-63965190D01*
X87710666Y-63841380D01*
X87772571Y-63346142D01*
X87849952Y-63222333D01*
X87981500Y-63160428D01*
X88229119Y-63160428D01*
X88345190Y-63222333D01*
X88391619Y-63346142D01*
X88376142Y-63469952D01*
X87741619Y-63593761D01*
X88863642Y-64027095D02*
X88971976Y-63160428D01*
X88941023Y-63408047D02*
X89018404Y-63284238D01*
X89088047Y-63222333D01*
X89219595Y-63160428D01*
X89343404Y-63160428D01*
X90604714Y-63965190D02*
X90782690Y-64027095D01*
X91092214Y-64027095D01*
X91223761Y-63965190D01*
X91293404Y-63903285D01*
X91370785Y-63779476D01*
X91386261Y-63655666D01*
X91339833Y-63531857D01*
X91285666Y-63469952D01*
X91169595Y-63408047D01*
X90929714Y-63346142D01*
X90813642Y-63284238D01*
X90759476Y-63222333D01*
X90713047Y-63098523D01*
X90728523Y-62974714D01*
X90805904Y-62850904D01*
X90875547Y-62789000D01*
X91007095Y-62727095D01*
X91316619Y-62727095D01*
X91494595Y-62789000D01*
X92461857Y-63965190D02*
X92330309Y-64027095D01*
X92082690Y-64027095D01*
X91966619Y-63965190D01*
X91912452Y-63903285D01*
X91866023Y-63779476D01*
X91912452Y-63408047D01*
X91989833Y-63284238D01*
X92059476Y-63222333D01*
X92191023Y-63160428D01*
X92438642Y-63160428D01*
X92554714Y-63222333D01*
X93011261Y-64027095D02*
X93119595Y-63160428D01*
X93173761Y-62727095D02*
X93104119Y-62789000D01*
X93158285Y-62850904D01*
X93227928Y-62789000D01*
X93173761Y-62727095D01*
X93158285Y-62850904D01*
X94133285Y-63965190D02*
X94001738Y-64027095D01*
X93754119Y-64027095D01*
X93638047Y-63965190D01*
X93591619Y-63841380D01*
X93653523Y-63346142D01*
X93730904Y-63222333D01*
X93862452Y-63160428D01*
X94110071Y-63160428D01*
X94226142Y-63222333D01*
X94272571Y-63346142D01*
X94257095Y-63469952D01*
X93622571Y-63593761D01*
X94852928Y-63160428D02*
X94744595Y-64027095D01*
X94837452Y-63284238D02*
X94907095Y-63222333D01*
X95038642Y-63160428D01*
X95224357Y-63160428D01*
X95340428Y-63222333D01*
X95386857Y-63346142D01*
X95301738Y-64027095D01*
X96485666Y-63965190D02*
X96354119Y-64027095D01*
X96106500Y-64027095D01*
X95990428Y-63965190D01*
X95936261Y-63903285D01*
X95889833Y-63779476D01*
X95936261Y-63408047D01*
X96013642Y-63284238D01*
X96083285Y-63222333D01*
X96214833Y-63160428D01*
X96462452Y-63160428D01*
X96578523Y-63222333D01*
X97538047Y-63965190D02*
X97406500Y-64027095D01*
X97158880Y-64027095D01*
X97042809Y-63965190D01*
X96996380Y-63841380D01*
X97058285Y-63346142D01*
X97135666Y-63222333D01*
X97267214Y-63160428D01*
X97514833Y-63160428D01*
X97630904Y-63222333D01*
X97677333Y-63346142D01*
X97661857Y-63469952D01*
X97027333Y-63593761D01*
X55473761Y-66913095D02*
X55342214Y-67965476D01*
X55388642Y-68089285D01*
X55442809Y-68151190D01*
X55558880Y-68213095D01*
X55806500Y-68213095D01*
X55938047Y-68151190D01*
X56007690Y-68089285D01*
X56085071Y-67965476D01*
X56216619Y-66913095D01*
X57431500Y-68089285D02*
X57361857Y-68151190D01*
X57168404Y-68213095D01*
X57044595Y-68213095D01*
X56866619Y-68151190D01*
X56758285Y-68027380D01*
X56711857Y-67903571D01*
X56680904Y-67655952D01*
X56704119Y-67470238D01*
X56796976Y-67222619D01*
X56874357Y-67098809D01*
X57013642Y-66975000D01*
X57207095Y-66913095D01*
X57330904Y-66913095D01*
X57508880Y-66975000D01*
X57563047Y-67036904D01*
X59482095Y-67532142D02*
X59660071Y-67594047D01*
X59714238Y-67655952D01*
X59760666Y-67779761D01*
X59737452Y-67965476D01*
X59660071Y-68089285D01*
X59590428Y-68151190D01*
X59458880Y-68213095D01*
X58963642Y-68213095D01*
X59126142Y-66913095D01*
X59559476Y-66913095D01*
X59675547Y-66975000D01*
X59729714Y-67036904D01*
X59776142Y-67160714D01*
X59760666Y-67284523D01*
X59683285Y-67408333D01*
X59613642Y-67470238D01*
X59482095Y-67532142D01*
X59048761Y-67532142D01*
X60766619Y-68151190D02*
X60635071Y-68213095D01*
X60387452Y-68213095D01*
X60271380Y-68151190D01*
X60224952Y-68027380D01*
X60286857Y-67532142D01*
X60364238Y-67408333D01*
X60495785Y-67346428D01*
X60743404Y-67346428D01*
X60859476Y-67408333D01*
X60905904Y-67532142D01*
X60890428Y-67655952D01*
X60255904Y-67779761D01*
X61377928Y-68213095D02*
X61486261Y-67346428D01*
X61455309Y-67594047D02*
X61532690Y-67470238D01*
X61602333Y-67408333D01*
X61733880Y-67346428D01*
X61857690Y-67346428D01*
X62182690Y-68213095D02*
X62345190Y-66913095D01*
X62368404Y-67717857D02*
X62677928Y-68213095D01*
X62786261Y-67346428D02*
X62229119Y-67841666D01*
X63738047Y-68151190D02*
X63606500Y-68213095D01*
X63358880Y-68213095D01*
X63242809Y-68151190D01*
X63196380Y-68027380D01*
X63258285Y-67532142D01*
X63335666Y-67408333D01*
X63467214Y-67346428D01*
X63714833Y-67346428D01*
X63830904Y-67408333D01*
X63877333Y-67532142D01*
X63861857Y-67655952D01*
X63227333Y-67779761D01*
X64535071Y-68213095D02*
X64419000Y-68151190D01*
X64372571Y-68027380D01*
X64511857Y-66913095D01*
X65533285Y-68151190D02*
X65401738Y-68213095D01*
X65154119Y-68213095D01*
X65038047Y-68151190D01*
X64991619Y-68027380D01*
X65053523Y-67532142D01*
X65130904Y-67408333D01*
X65262452Y-67346428D01*
X65510071Y-67346428D01*
X65626142Y-67408333D01*
X65672571Y-67532142D01*
X65657095Y-67655952D01*
X65022571Y-67779761D01*
X66129119Y-67346428D02*
X66330309Y-68213095D01*
X66748166Y-67346428D02*
X66330309Y-68213095D01*
X66167809Y-68522619D01*
X66098166Y-68584523D01*
X65966619Y-68646428D01*
X67204714Y-68151190D02*
X67196976Y-68213095D01*
X67119595Y-68336904D01*
X67049952Y-68398809D01*
X69502928Y-68089285D02*
X69433285Y-68151190D01*
X69239833Y-68213095D01*
X69116023Y-68213095D01*
X68938047Y-68151190D01*
X68829714Y-68027380D01*
X68783285Y-67903571D01*
X68752333Y-67655952D01*
X68775547Y-67470238D01*
X68868404Y-67222619D01*
X68945785Y-67098809D01*
X69085071Y-66975000D01*
X69278523Y-66913095D01*
X69402333Y-66913095D01*
X69580309Y-66975000D01*
X69634476Y-67036904D01*
X70230309Y-68213095D02*
X70114238Y-68151190D01*
X70067809Y-68027380D01*
X70207095Y-66913095D01*
X71282690Y-68213095D02*
X71367809Y-67532142D01*
X71321380Y-67408333D01*
X71205309Y-67346428D01*
X70957690Y-67346428D01*
X70826142Y-67408333D01*
X71290428Y-68151190D02*
X71158880Y-68213095D01*
X70849357Y-68213095D01*
X70733285Y-68151190D01*
X70686857Y-68027380D01*
X70702333Y-67903571D01*
X70779714Y-67779761D01*
X70911261Y-67717857D01*
X71220785Y-67717857D01*
X71352333Y-67655952D01*
X71847571Y-68151190D02*
X71963642Y-68213095D01*
X72211261Y-68213095D01*
X72342809Y-68151190D01*
X72420190Y-68027380D01*
X72427928Y-67965476D01*
X72381500Y-67841666D01*
X72265428Y-67779761D01*
X72079714Y-67779761D01*
X71963642Y-67717857D01*
X71917214Y-67594047D01*
X71924952Y-67532142D01*
X72002333Y-67408333D01*
X72133880Y-67346428D01*
X72319595Y-67346428D01*
X72435666Y-67408333D01*
X72899952Y-68151190D02*
X73016023Y-68213095D01*
X73263642Y-68213095D01*
X73395190Y-68151190D01*
X73472571Y-68027380D01*
X73480309Y-67965476D01*
X73433880Y-67841666D01*
X73317809Y-67779761D01*
X73132095Y-67779761D01*
X73016023Y-67717857D01*
X72969595Y-67594047D01*
X72977333Y-67532142D01*
X73054714Y-67408333D01*
X73186261Y-67346428D01*
X73371976Y-67346428D01*
X73488047Y-67408333D01*
X75182690Y-68213095D02*
X75066619Y-68151190D01*
X75012452Y-68089285D01*
X74966023Y-67965476D01*
X75012452Y-67594047D01*
X75089833Y-67470238D01*
X75159476Y-67408333D01*
X75291023Y-67346428D01*
X75476738Y-67346428D01*
X75592809Y-67408333D01*
X75646976Y-67470238D01*
X75693404Y-67594047D01*
X75646976Y-67965476D01*
X75569595Y-68089285D01*
X75499952Y-68151190D01*
X75368404Y-68213095D01*
X75182690Y-68213095D01*
X76095785Y-67346428D02*
X76591023Y-67346428D01*
X76173166Y-68213095D02*
X76312452Y-67098809D01*
X76389833Y-66975000D01*
X76521380Y-66913095D01*
X76645190Y-66913095D01*
X77991619Y-67036904D02*
X78061261Y-66975000D01*
X78192809Y-66913095D01*
X78502333Y-66913095D01*
X78618404Y-66975000D01*
X78672571Y-67036904D01*
X78719000Y-67160714D01*
X78703523Y-67284523D01*
X78618404Y-67470238D01*
X77782690Y-68213095D01*
X78587452Y-68213095D01*
X79554714Y-66913095D02*
X79678523Y-66913095D01*
X79794595Y-66975000D01*
X79848761Y-67036904D01*
X79895190Y-67160714D01*
X79926142Y-67408333D01*
X79887452Y-67717857D01*
X79794595Y-67965476D01*
X79717214Y-68089285D01*
X79647571Y-68151190D01*
X79516023Y-68213095D01*
X79392214Y-68213095D01*
X79276142Y-68151190D01*
X79221976Y-68089285D01*
X79175547Y-67965476D01*
X79144595Y-67717857D01*
X79183285Y-67408333D01*
X79276142Y-67160714D01*
X79353523Y-67036904D01*
X79423166Y-66975000D01*
X79554714Y-66913095D01*
X80467809Y-67036904D02*
X80537452Y-66975000D01*
X80669000Y-66913095D01*
X80978523Y-66913095D01*
X81094595Y-66975000D01*
X81148761Y-67036904D01*
X81195190Y-67160714D01*
X81179714Y-67284523D01*
X81094595Y-67470238D01*
X80258880Y-68213095D01*
X81063642Y-68213095D01*
X82286261Y-67346428D02*
X82177928Y-68213095D01*
X82038642Y-66851190D02*
X81613047Y-67779761D01*
X82417809Y-67779761D01*
X55303523Y-71095428D02*
X55303523Y-71962095D01*
X55303523Y-71219238D02*
X55365428Y-71157333D01*
X55489238Y-71095428D01*
X55674952Y-71095428D01*
X55798761Y-71157333D01*
X55860666Y-71281142D01*
X55860666Y-71962095D01*
X56974952Y-71900190D02*
X56851142Y-71962095D01*
X56603523Y-71962095D01*
X56479714Y-71900190D01*
X56417809Y-71776380D01*
X56417809Y-71281142D01*
X56479714Y-71157333D01*
X56603523Y-71095428D01*
X56851142Y-71095428D01*
X56974952Y-71157333D01*
X57036857Y-71281142D01*
X57036857Y-71404952D01*
X56417809Y-71528761D01*
X58151142Y-71095428D02*
X58151142Y-71962095D01*
X57594000Y-71095428D02*
X57594000Y-71776380D01*
X57655904Y-71900190D01*
X57779714Y-71962095D01*
X57965428Y-71962095D01*
X58089238Y-71900190D01*
X58151142Y-71838285D01*
X58770190Y-71962095D02*
X58770190Y-71095428D01*
X58770190Y-71343047D02*
X58832095Y-71219238D01*
X58894000Y-71157333D01*
X59017809Y-71095428D01*
X59141619Y-71095428D01*
X59760666Y-71962095D02*
X59636857Y-71900190D01*
X59574952Y-71838285D01*
X59513047Y-71714476D01*
X59513047Y-71343047D01*
X59574952Y-71219238D01*
X59636857Y-71157333D01*
X59760666Y-71095428D01*
X59946380Y-71095428D01*
X60070190Y-71157333D01*
X60132095Y-71219238D01*
X60194000Y-71343047D01*
X60194000Y-71714476D01*
X60132095Y-71838285D01*
X60070190Y-71900190D01*
X59946380Y-71962095D01*
X59760666Y-71962095D01*
X60565428Y-71095428D02*
X61060666Y-71095428D01*
X60751142Y-70662095D02*
X60751142Y-71776380D01*
X60813047Y-71900190D01*
X60936857Y-71962095D01*
X61060666Y-71962095D01*
X61989238Y-71900190D02*
X61865428Y-71962095D01*
X61617809Y-71962095D01*
X61494000Y-71900190D01*
X61432095Y-71776380D01*
X61432095Y-71281142D01*
X61494000Y-71157333D01*
X61617809Y-71095428D01*
X61865428Y-71095428D01*
X61989238Y-71157333D01*
X62051142Y-71281142D01*
X62051142Y-71404952D01*
X61432095Y-71528761D01*
X63165428Y-71900190D02*
X63041619Y-71962095D01*
X62794000Y-71962095D01*
X62670190Y-71900190D01*
X62608285Y-71838285D01*
X62546380Y-71714476D01*
X62546380Y-71343047D01*
X62608285Y-71219238D01*
X62670190Y-71157333D01*
X62794000Y-71095428D01*
X63041619Y-71095428D01*
X63165428Y-71157333D01*
X63722571Y-71962095D02*
X63722571Y-70662095D01*
X64279714Y-71962095D02*
X64279714Y-71281142D01*
X64217809Y-71157333D01*
X64094000Y-71095428D01*
X63908285Y-71095428D01*
X63784476Y-71157333D01*
X63722571Y-71219238D01*
X66198761Y-72395428D02*
X66198761Y-70538285D01*
X68117809Y-71962095D02*
X68117809Y-71095428D01*
X68117809Y-71219238D02*
X68179714Y-71157333D01*
X68303523Y-71095428D01*
X68489238Y-71095428D01*
X68613047Y-71157333D01*
X68674952Y-71281142D01*
X68674952Y-71962095D01*
X68674952Y-71281142D02*
X68736857Y-71157333D01*
X68860666Y-71095428D01*
X69046380Y-71095428D01*
X69170190Y-71157333D01*
X69232095Y-71281142D01*
X69232095Y-71962095D01*
X70408285Y-71962095D02*
X70408285Y-71281142D01*
X70346380Y-71157333D01*
X70222571Y-71095428D01*
X69974952Y-71095428D01*
X69851142Y-71157333D01*
X70408285Y-71900190D02*
X70284476Y-71962095D01*
X69974952Y-71962095D01*
X69851142Y-71900190D01*
X69789238Y-71776380D01*
X69789238Y-71652571D01*
X69851142Y-71528761D01*
X69974952Y-71466857D01*
X70284476Y-71466857D01*
X70408285Y-71404952D01*
X71584476Y-71900190D02*
X71460666Y-71962095D01*
X71213047Y-71962095D01*
X71089238Y-71900190D01*
X71027333Y-71838285D01*
X70965428Y-71714476D01*
X70965428Y-71343047D01*
X71027333Y-71219238D01*
X71089238Y-71157333D01*
X71213047Y-71095428D01*
X71460666Y-71095428D01*
X71584476Y-71157333D01*
X72141619Y-71962095D02*
X72141619Y-70662095D01*
X72698761Y-71962095D02*
X72698761Y-71281142D01*
X72636857Y-71157333D01*
X72513047Y-71095428D01*
X72327333Y-71095428D01*
X72203523Y-71157333D01*
X72141619Y-71219238D01*
X73317809Y-71962095D02*
X73317809Y-71095428D01*
X73317809Y-70662095D02*
X73255904Y-70724000D01*
X73317809Y-70785904D01*
X73379714Y-70724000D01*
X73317809Y-70662095D01*
X73317809Y-70785904D01*
X73936857Y-71095428D02*
X73936857Y-71962095D01*
X73936857Y-71219238D02*
X73998761Y-71157333D01*
X74122571Y-71095428D01*
X74308285Y-71095428D01*
X74432095Y-71157333D01*
X74494000Y-71281142D01*
X74494000Y-71962095D01*
X75608285Y-71900190D02*
X75484476Y-71962095D01*
X75236857Y-71962095D01*
X75113047Y-71900190D01*
X75051142Y-71776380D01*
X75051142Y-71281142D01*
X75113047Y-71157333D01*
X75236857Y-71095428D01*
X75484476Y-71095428D01*
X75608285Y-71157333D01*
X75670190Y-71281142D01*
X75670190Y-71404952D01*
X75051142Y-71528761D01*
X77403523Y-71962095D02*
X77279714Y-71900190D01*
X77217809Y-71776380D01*
X77217809Y-70662095D01*
X78394000Y-71900190D02*
X78270190Y-71962095D01*
X78022571Y-71962095D01*
X77898761Y-71900190D01*
X77836857Y-71776380D01*
X77836857Y-71281142D01*
X77898761Y-71157333D01*
X78022571Y-71095428D01*
X78270190Y-71095428D01*
X78394000Y-71157333D01*
X78455904Y-71281142D01*
X78455904Y-71404952D01*
X77836857Y-71528761D01*
X79570190Y-71962095D02*
X79570190Y-71281142D01*
X79508285Y-71157333D01*
X79384476Y-71095428D01*
X79136857Y-71095428D01*
X79013047Y-71157333D01*
X79570190Y-71900190D02*
X79446380Y-71962095D01*
X79136857Y-71962095D01*
X79013047Y-71900190D01*
X78951142Y-71776380D01*
X78951142Y-71652571D01*
X79013047Y-71528761D01*
X79136857Y-71466857D01*
X79446380Y-71466857D01*
X79570190Y-71404952D01*
X80189238Y-71962095D02*
X80189238Y-71095428D01*
X80189238Y-71343047D02*
X80251142Y-71219238D01*
X80313047Y-71157333D01*
X80436857Y-71095428D01*
X80560666Y-71095428D01*
X80994000Y-71095428D02*
X80994000Y-71962095D01*
X80994000Y-71219238D02*
X81055904Y-71157333D01*
X81179714Y-71095428D01*
X81365428Y-71095428D01*
X81489238Y-71157333D01*
X81551142Y-71281142D01*
X81551142Y-71962095D01*
X82170190Y-71962095D02*
X82170190Y-71095428D01*
X82170190Y-70662095D02*
X82108285Y-70724000D01*
X82170190Y-70785904D01*
X82232095Y-70724000D01*
X82170190Y-70662095D01*
X82170190Y-70785904D01*
X82789238Y-71095428D02*
X82789238Y-71962095D01*
X82789238Y-71219238D02*
X82851142Y-71157333D01*
X82974952Y-71095428D01*
X83160666Y-71095428D01*
X83284476Y-71157333D01*
X83346380Y-71281142D01*
X83346380Y-71962095D01*
X84522571Y-71095428D02*
X84522571Y-72147809D01*
X84460666Y-72271619D01*
X84398761Y-72333523D01*
X84274952Y-72395428D01*
X84089238Y-72395428D01*
X83965428Y-72333523D01*
X84522571Y-71900190D02*
X84398761Y-71962095D01*
X84151142Y-71962095D01*
X84027333Y-71900190D01*
X83965428Y-71838285D01*
X83903523Y-71714476D01*
X83903523Y-71343047D01*
X83965428Y-71219238D01*
X84027333Y-71157333D01*
X84151142Y-71095428D01*
X84398761Y-71095428D01*
X84522571Y-71157333D01*
X86441619Y-72395428D02*
X86441619Y-70538285D01*
X88360666Y-71962095D02*
X88360666Y-70662095D01*
X88917809Y-71962095D02*
X88917809Y-71281142D01*
X88855904Y-71157333D01*
X88732095Y-71095428D01*
X88546380Y-71095428D01*
X88422571Y-71157333D01*
X88360666Y-71219238D01*
X90094000Y-71962095D02*
X90094000Y-71281142D01*
X90032095Y-71157333D01*
X89908285Y-71095428D01*
X89660666Y-71095428D01*
X89536857Y-71157333D01*
X90094000Y-71900190D02*
X89970190Y-71962095D01*
X89660666Y-71962095D01*
X89536857Y-71900190D01*
X89474952Y-71776380D01*
X89474952Y-71652571D01*
X89536857Y-71528761D01*
X89660666Y-71466857D01*
X89970190Y-71466857D01*
X90094000Y-71404952D01*
X90713047Y-71962095D02*
X90713047Y-71095428D01*
X90713047Y-71343047D02*
X90774952Y-71219238D01*
X90836857Y-71157333D01*
X90960666Y-71095428D01*
X91084476Y-71095428D01*
X92074952Y-71962095D02*
X92074952Y-70662095D01*
X92074952Y-71900190D02*
X91951142Y-71962095D01*
X91703523Y-71962095D01*
X91579714Y-71900190D01*
X91517809Y-71838285D01*
X91455904Y-71714476D01*
X91455904Y-71343047D01*
X91517809Y-71219238D01*
X91579714Y-71157333D01*
X91703523Y-71095428D01*
X91951142Y-71095428D01*
X92074952Y-71157333D01*
X92570190Y-71095428D02*
X92817809Y-71962095D01*
X93065428Y-71343047D01*
X93313047Y-71962095D01*
X93560666Y-71095428D01*
X94613047Y-71962095D02*
X94613047Y-71281142D01*
X94551142Y-71157333D01*
X94427333Y-71095428D01*
X94179714Y-71095428D01*
X94055904Y-71157333D01*
X94613047Y-71900190D02*
X94489238Y-71962095D01*
X94179714Y-71962095D01*
X94055904Y-71900190D01*
X93994000Y-71776380D01*
X93994000Y-71652571D01*
X94055904Y-71528761D01*
X94179714Y-71466857D01*
X94489238Y-71466857D01*
X94613047Y-71404952D01*
X95232095Y-71962095D02*
X95232095Y-71095428D01*
X95232095Y-71343047D02*
X95294000Y-71219238D01*
X95355904Y-71157333D01*
X95479714Y-71095428D01*
X95603523Y-71095428D01*
X96532095Y-71900190D02*
X96408285Y-71962095D01*
X96160666Y-71962095D01*
X96036857Y-71900190D01*
X95974952Y-71776380D01*
X95974952Y-71281142D01*
X96036857Y-71157333D01*
X96160666Y-71095428D01*
X96408285Y-71095428D01*
X96532095Y-71157333D01*
X96594000Y-71281142D01*
X96594000Y-71404952D01*
X95974952Y-71528761D01*
X86291523Y-100410095D02*
X86291523Y-99543428D01*
X86291523Y-99110095D02*
X86229619Y-99172000D01*
X86291523Y-99233904D01*
X86353428Y-99172000D01*
X86291523Y-99110095D01*
X86291523Y-99233904D01*
X86910571Y-99543428D02*
X86910571Y-100410095D01*
X86910571Y-99667238D02*
X86972476Y-99605333D01*
X87096285Y-99543428D01*
X87282000Y-99543428D01*
X87405809Y-99605333D01*
X87467714Y-99729142D01*
X87467714Y-100410095D01*
X88643904Y-99543428D02*
X88643904Y-100595809D01*
X88582000Y-100719619D01*
X88520095Y-100781523D01*
X88396285Y-100843428D01*
X88210571Y-100843428D01*
X88086761Y-100781523D01*
X88643904Y-100348190D02*
X88520095Y-100410095D01*
X88272476Y-100410095D01*
X88148666Y-100348190D01*
X88086761Y-100286285D01*
X88024857Y-100162476D01*
X88024857Y-99791047D01*
X88086761Y-99667238D01*
X88148666Y-99605333D01*
X88272476Y-99543428D01*
X88520095Y-99543428D01*
X88643904Y-99605333D01*
X89820095Y-100410095D02*
X89820095Y-99729142D01*
X89758190Y-99605333D01*
X89634380Y-99543428D01*
X89386761Y-99543428D01*
X89262952Y-99605333D01*
X89820095Y-100348190D02*
X89696285Y-100410095D01*
X89386761Y-100410095D01*
X89262952Y-100348190D01*
X89201047Y-100224380D01*
X89201047Y-100100571D01*
X89262952Y-99976761D01*
X89386761Y-99914857D01*
X89696285Y-99914857D01*
X89820095Y-99852952D01*
X90439142Y-100410095D02*
X90439142Y-99543428D01*
X90439142Y-99791047D02*
X90501047Y-99667238D01*
X90562952Y-99605333D01*
X90686761Y-99543428D01*
X90810571Y-99543428D01*
X91429619Y-100410095D02*
X91305809Y-100348190D01*
X91243904Y-100286285D01*
X91182000Y-100162476D01*
X91182000Y-99791047D01*
X91243904Y-99667238D01*
X91305809Y-99605333D01*
X91429619Y-99543428D01*
X91615333Y-99543428D01*
X91739142Y-99605333D01*
X91801047Y-99667238D01*
X91862952Y-99791047D01*
X91862952Y-100162476D01*
X91801047Y-100286285D01*
X91739142Y-100348190D01*
X91615333Y-100410095D01*
X91429619Y-100410095D01*
X92420095Y-100410095D02*
X92420095Y-99110095D01*
X92420095Y-99605333D02*
X92543904Y-99543428D01*
X92791523Y-99543428D01*
X92915333Y-99605333D01*
X92977238Y-99667238D01*
X93039142Y-99791047D01*
X93039142Y-100162476D01*
X92977238Y-100286285D01*
X92915333Y-100348190D01*
X92791523Y-100410095D01*
X92543904Y-100410095D01*
X92420095Y-100348190D01*
X93782000Y-100410095D02*
X93658190Y-100348190D01*
X93596285Y-100286285D01*
X93534380Y-100162476D01*
X93534380Y-99791047D01*
X93596285Y-99667238D01*
X93658190Y-99605333D01*
X93782000Y-99543428D01*
X93967714Y-99543428D01*
X94091523Y-99605333D01*
X94153428Y-99667238D01*
X94215333Y-99791047D01*
X94215333Y-100162476D01*
X94153428Y-100286285D01*
X94091523Y-100348190D01*
X93967714Y-100410095D01*
X93782000Y-100410095D01*
X94586761Y-99543428D02*
X95082000Y-99543428D01*
X94772476Y-99110095D02*
X94772476Y-100224380D01*
X94834380Y-100348190D01*
X94958190Y-100410095D01*
X95082000Y-100410095D01*
X95515333Y-100410095D02*
X95515333Y-99543428D01*
X95515333Y-99110095D02*
X95453428Y-99172000D01*
X95515333Y-99233904D01*
X95577238Y-99172000D01*
X95515333Y-99110095D01*
X95515333Y-99233904D01*
X96691523Y-100348190D02*
X96567714Y-100410095D01*
X96320095Y-100410095D01*
X96196285Y-100348190D01*
X96134380Y-100286285D01*
X96072476Y-100162476D01*
X96072476Y-99791047D01*
X96134380Y-99667238D01*
X96196285Y-99605333D01*
X96320095Y-99543428D01*
X96567714Y-99543428D01*
X96691523Y-99605333D01*
X97186761Y-100348190D02*
X97310571Y-100410095D01*
X97558190Y-100410095D01*
X97682000Y-100348190D01*
X97743904Y-100224380D01*
X97743904Y-100162476D01*
X97682000Y-100038666D01*
X97558190Y-99976761D01*
X97372476Y-99976761D01*
X97248666Y-99914857D01*
X97186761Y-99791047D01*
X97186761Y-99729142D01*
X97248666Y-99605333D01*
X97372476Y-99543428D01*
X97558190Y-99543428D01*
X97682000Y-99605333D01*
X98301047Y-100286285D02*
X98362952Y-100348190D01*
X98301047Y-100410095D01*
X98239142Y-100348190D01*
X98301047Y-100286285D01*
X98301047Y-100410095D01*
X99477238Y-100348190D02*
X99353428Y-100410095D01*
X99105809Y-100410095D01*
X98982000Y-100348190D01*
X98920095Y-100286285D01*
X98858190Y-100162476D01*
X98858190Y-99791047D01*
X98920095Y-99667238D01*
X98982000Y-99605333D01*
X99105809Y-99543428D01*
X99353428Y-99543428D01*
X99477238Y-99605333D01*
X100220095Y-100410095D02*
X100096285Y-100348190D01*
X100034380Y-100286285D01*
X99972476Y-100162476D01*
X99972476Y-99791047D01*
X100034380Y-99667238D01*
X100096285Y-99605333D01*
X100220095Y-99543428D01*
X100405809Y-99543428D01*
X100529619Y-99605333D01*
X100591523Y-99667238D01*
X100653428Y-99791047D01*
X100653428Y-100162476D01*
X100591523Y-100286285D01*
X100529619Y-100348190D01*
X100405809Y-100410095D01*
X100220095Y-100410095D01*
X101210571Y-100410095D02*
X101210571Y-99543428D01*
X101210571Y-99667238D02*
X101272476Y-99605333D01*
X101396285Y-99543428D01*
X101582000Y-99543428D01*
X101705809Y-99605333D01*
X101767714Y-99729142D01*
X101767714Y-100410095D01*
X101767714Y-99729142D02*
X101829619Y-99605333D01*
X101953428Y-99543428D01*
X102139142Y-99543428D01*
X102262952Y-99605333D01*
X102324857Y-99729142D01*
X102324857Y-100410095D01*
D12*
%TO.C,C1*%
X100478000Y-78085836D02*
X100478000Y-77870164D01*
X101198000Y-78085836D02*
X101198000Y-77870164D01*
%TO.C,R1*%
X103531641Y-79376000D02*
X103224359Y-79376000D01*
X103531641Y-80136000D02*
X103224359Y-80136000D01*
%TO.C,G\u002A\u002A\u002A*%
G36*
X108740196Y-80832284D02*
G01*
X109407322Y-81252830D01*
X109517727Y-81337630D01*
X110200647Y-81823702D01*
X110639758Y-81871960D01*
X111138566Y-81505432D01*
X111184394Y-81464082D01*
X111765229Y-81060270D01*
X112080172Y-81025877D01*
X111971548Y-81352769D01*
X111441096Y-81877538D01*
X111402013Y-81908632D01*
X110713327Y-82624310D01*
X110351433Y-83290966D01*
X110213288Y-83738375D01*
X110151560Y-83506038D01*
X110133032Y-83207100D01*
X109834987Y-82453227D01*
X109171811Y-81705035D01*
X109142553Y-81681668D01*
X108553562Y-81135686D01*
X108358691Y-80779908D01*
X108372445Y-80756326D01*
X108740196Y-80832284D01*
G37*
G36*
X97474826Y-80577288D02*
G01*
X98069758Y-79902910D01*
X98487333Y-79175658D01*
X98643646Y-78069876D01*
X98708392Y-77270706D01*
X98990853Y-76635866D01*
X99623364Y-75962170D01*
X100479110Y-75251708D01*
X101868383Y-74278761D01*
X102953747Y-73865219D01*
X103853870Y-73993117D01*
X104662976Y-74618277D01*
X104936878Y-74944797D01*
X105137674Y-75327741D01*
X105276671Y-75875616D01*
X105365177Y-76696927D01*
X105414498Y-77900181D01*
X105435942Y-79593884D01*
X105440816Y-81886541D01*
X105440829Y-82082708D01*
X105435120Y-84442725D01*
X105411142Y-86196835D01*
X105358619Y-87454580D01*
X105267275Y-88325499D01*
X105126834Y-88919134D01*
X104927020Y-89345027D01*
X104733966Y-89617782D01*
X103733015Y-90496984D01*
X102522362Y-90739392D01*
X102005553Y-90687194D01*
X101402502Y-90379172D01*
X100509306Y-89676841D01*
X99506874Y-88724448D01*
X99386974Y-88599301D01*
X98354712Y-87433771D01*
X97790333Y-86573988D01*
X97606100Y-85874900D01*
X97612674Y-85665862D01*
X97558377Y-84663988D01*
X97302691Y-83514708D01*
X97269107Y-83411539D01*
X97230001Y-83133501D01*
X97555107Y-83133501D01*
X97803338Y-83867324D01*
X97949097Y-83999009D01*
X98158284Y-84490986D01*
X98103151Y-85255821D01*
X98062772Y-85855890D01*
X98265155Y-86485843D01*
X98785162Y-87258938D01*
X99697654Y-88288431D01*
X100947019Y-89558258D01*
X101989060Y-90147683D01*
X103157764Y-90146288D01*
X104071110Y-89654562D01*
X104296460Y-89392677D01*
X104463634Y-89005971D01*
X104581158Y-88394360D01*
X104657560Y-87457760D01*
X104701367Y-86096089D01*
X104721104Y-84209263D01*
X104725336Y-81975600D01*
X104721898Y-79552198D01*
X104705215Y-77746312D01*
X104665735Y-76459973D01*
X104593907Y-75595214D01*
X104480179Y-75054065D01*
X104314999Y-74738560D01*
X104088816Y-74550731D01*
X103996330Y-74498551D01*
X103268100Y-74260820D01*
X102511465Y-74404107D01*
X101579661Y-74988182D01*
X100480666Y-75930326D01*
X99581365Y-76820530D01*
X99141581Y-77489864D01*
X99046141Y-78143676D01*
X99076622Y-78433631D01*
X99004136Y-79467983D01*
X98402278Y-80288438D01*
X97887004Y-81078548D01*
X97593805Y-82115406D01*
X97555107Y-83133501D01*
X97230001Y-83133501D01*
X97054329Y-81884479D01*
X97474826Y-80577288D01*
G37*
G36*
X104225258Y-84755789D02*
G01*
X104093238Y-85284917D01*
X103738880Y-85854794D01*
X103279051Y-86210142D01*
X103240162Y-86221931D01*
X102689840Y-86695221D01*
X102578857Y-87226394D01*
X102440609Y-87967291D01*
X102221111Y-88279023D01*
X101966158Y-88141016D01*
X101863409Y-87450362D01*
X101863364Y-87431735D01*
X101547667Y-86294981D01*
X100920753Y-85621889D01*
X100373059Y-85097838D01*
X100449227Y-84884573D01*
X100519202Y-84880431D01*
X101190003Y-85134849D01*
X101505618Y-85417051D01*
X102220848Y-85888702D01*
X102977623Y-85868915D01*
X103498804Y-85381956D01*
X103548440Y-85238177D01*
X103817396Y-84658558D01*
X104018075Y-84522684D01*
X104225258Y-84755789D01*
G37*
G36*
X106228112Y-77783710D02*
G01*
X106351293Y-76302040D01*
X106562391Y-75283234D01*
X106883701Y-74643187D01*
X107337519Y-74297790D01*
X107946139Y-74162938D01*
X108362875Y-74148037D01*
X109435803Y-74411784D01*
X110617658Y-75094286D01*
X111721376Y-76032433D01*
X112559892Y-77063118D01*
X112946139Y-78023231D01*
X112953505Y-78150772D01*
X113164992Y-79191611D01*
X113677075Y-80240165D01*
X113708135Y-80284689D01*
X114150463Y-80998714D01*
X114387355Y-81719898D01*
X114435286Y-82636383D01*
X114310731Y-83936315D01*
X114133984Y-85147770D01*
X113896704Y-86397330D01*
X113556536Y-87300132D01*
X112967990Y-88124321D01*
X111985579Y-89138040D01*
X111950312Y-89172418D01*
X110514957Y-90374718D01*
X109290943Y-90937875D01*
X108199042Y-90876581D01*
X107160025Y-90205528D01*
X107034427Y-90084016D01*
X106728274Y-89758645D01*
X106503098Y-89412231D01*
X106346463Y-88936963D01*
X106245931Y-88225030D01*
X106189065Y-87168619D01*
X106163429Y-85659918D01*
X106156585Y-83591117D01*
X106156322Y-82472068D01*
X106156561Y-82427469D01*
X106871815Y-82427469D01*
X106874582Y-84843303D01*
X106889875Y-86644151D01*
X106928180Y-87930516D01*
X106999984Y-88802902D01*
X107115774Y-89361812D01*
X107286038Y-89707751D01*
X107521261Y-89941222D01*
X107666909Y-90047469D01*
X108476691Y-90480108D01*
X109236759Y-90507356D01*
X110095700Y-90081096D01*
X111202102Y-89153210D01*
X111600583Y-88773621D01*
X112660689Y-87672165D01*
X113267608Y-86812808D01*
X113540207Y-86007898D01*
X113583424Y-85643339D01*
X113702233Y-84369937D01*
X113866070Y-83016512D01*
X113881144Y-82909022D01*
X113922816Y-81765847D01*
X113579900Y-80871409D01*
X113262066Y-80427325D01*
X112683636Y-79380592D01*
X112535530Y-78456025D01*
X112534979Y-77912135D01*
X112336894Y-77408428D01*
X111838811Y-76804675D01*
X110938268Y-75960646D01*
X110307604Y-75406925D01*
X109154270Y-74688236D01*
X108085257Y-74543057D01*
X107301111Y-74935079D01*
X107136139Y-75365012D01*
X107013628Y-76314049D01*
X106930693Y-77832535D01*
X106884450Y-79970816D01*
X106871815Y-82427469D01*
X106156561Y-82427469D01*
X106170554Y-79812350D01*
X106228112Y-77783710D01*
G37*
G36*
X114517990Y-73549097D02*
G01*
X114566338Y-73580468D01*
X115322053Y-74276029D01*
X115953960Y-75194848D01*
X116352559Y-76120552D01*
X116408349Y-76836769D01*
X116306777Y-77019553D01*
X115844441Y-77205450D01*
X115702190Y-77135220D01*
X115494165Y-76605134D01*
X115457730Y-76214725D01*
X115207135Y-75564558D01*
X114580284Y-74755749D01*
X114315270Y-74495213D01*
X113615517Y-73730277D01*
X113432177Y-73258865D01*
X113741063Y-73169097D01*
X114517990Y-73549097D01*
G37*
G36*
X115449614Y-71933066D02*
G01*
X116372975Y-72677814D01*
X117236886Y-73693535D01*
X117822758Y-74724432D01*
X118251334Y-76022888D01*
X118223164Y-76780904D01*
X117783083Y-77010008D01*
X117356261Y-76691373D01*
X117246463Y-75964217D01*
X116966666Y-74895152D01*
X116266133Y-73768714D01*
X115353153Y-72868500D01*
X114726525Y-72533191D01*
X114134498Y-72182226D01*
X114100404Y-71816782D01*
X114640555Y-71643884D01*
X114656456Y-71643811D01*
X115449614Y-71933066D01*
G37*
G36*
X116603746Y-68190151D02*
G01*
X118012541Y-68874289D01*
X119362871Y-70096676D01*
X120534155Y-71682769D01*
X121405809Y-73458023D01*
X121857253Y-75247897D01*
X121893672Y-75847332D01*
X121820718Y-76919658D01*
X121634689Y-77319215D01*
X121394601Y-77067728D01*
X121159467Y-76186916D01*
X121065146Y-75542371D01*
X120449724Y-73222055D01*
X119232729Y-71195213D01*
X117497143Y-69593824D01*
X117205325Y-69403509D01*
X116134193Y-68678638D01*
X115683281Y-68227992D01*
X115859805Y-68066126D01*
X116603746Y-68190151D01*
G37*
G36*
X103091871Y-80752054D02*
G01*
X102664533Y-81140124D01*
X102002798Y-81878056D01*
X101543957Y-82839419D01*
X101320675Y-83430774D01*
X101191197Y-83417587D01*
X101180136Y-83311595D01*
X100908071Y-82621602D01*
X100288133Y-81842382D01*
X100213694Y-81771359D01*
X99647306Y-81156560D01*
X99450905Y-80753021D01*
X99468389Y-80716721D01*
X99821747Y-80802880D01*
X100402566Y-81273154D01*
X101147871Y-82018459D01*
X101863364Y-81302966D01*
X102533764Y-80775313D01*
X103016204Y-80587473D01*
X103091871Y-80752054D01*
G37*
G36*
X107886852Y-85171986D02*
G01*
X108068566Y-85387921D01*
X108647287Y-86050996D01*
X109064408Y-86214667D01*
X109589651Y-85950401D01*
X109756249Y-85835104D01*
X110563647Y-85396389D01*
X111154937Y-85243451D01*
X111292832Y-85370698D01*
X110841806Y-85681678D01*
X110807026Y-85699396D01*
X110101408Y-86313749D01*
X109755135Y-87367292D01*
X109733787Y-87516623D01*
X109562186Y-88312218D01*
X109351142Y-88637121D01*
X109286604Y-88610913D01*
X109053395Y-88049971D01*
X109018294Y-87699040D01*
X108778311Y-87024193D01*
X108193564Y-86236636D01*
X108123928Y-86165066D01*
X107521564Y-85440387D01*
X107235170Y-84855102D01*
X107231338Y-84807256D01*
X107419502Y-84749607D01*
X107886852Y-85171986D01*
G37*
G36*
X109895829Y-76795513D02*
G01*
X109430059Y-77142376D01*
X109378294Y-77171368D01*
X108574436Y-77871773D01*
X108052881Y-78679113D01*
X107755282Y-79314727D01*
X107631617Y-79322041D01*
X107603444Y-78902114D01*
X107867952Y-78060237D01*
X108528487Y-77249731D01*
X109338420Y-76732291D01*
X109711807Y-76664939D01*
X109895829Y-76795513D01*
G37*
G36*
X115857580Y-69875952D02*
G01*
X116101552Y-70002014D01*
X117542495Y-71057392D01*
X118783918Y-72518900D01*
X119682899Y-74169628D01*
X120096512Y-75792669D01*
X120108435Y-76083039D01*
X119963798Y-76884172D01*
X119613672Y-77249993D01*
X119263967Y-77119531D01*
X119107999Y-76636708D01*
X119035794Y-75768814D01*
X119035195Y-75680506D01*
X118871622Y-74487564D01*
X118511425Y-73457391D01*
X117877960Y-72543352D01*
X117001471Y-71637102D01*
X116088227Y-70921296D01*
X115344497Y-70578590D01*
X115251409Y-70570572D01*
X114801078Y-70283608D01*
X114742237Y-70033952D01*
X114811382Y-69607370D01*
X115128381Y-69555990D01*
X115857580Y-69875952D01*
G37*
%TO.C,D1*%
X53887000Y-53875000D02*
X53887000Y-55345000D01*
X53887000Y-55345000D02*
X56172000Y-55345000D01*
X56172000Y-53875000D02*
X53887000Y-53875000D01*
D13*
%TO.C,U1*%
X101920000Y-78041000D02*
X101920000Y-77616000D01*
X103820000Y-78041000D02*
X103820000Y-77616000D01*
X103820000Y-76391000D02*
X103820000Y-76816000D01*
X101920000Y-76391000D02*
X101920000Y-76816000D01*
D11*
X103490709Y-75966000D02*
G75*
G03*
X103490709Y-75966000I-70709J0D01*
G01*
%TD*%
M02*
