%TF.GenerationSoftware,KiCad,Pcbnew,(6.99.0)*%
%TF.CreationDate,2022-05-24T21:05:52-07:00*%
%TF.ProjectId,Card,43617264-2e6b-4696-9361-645f70636258,rev?*%
%TF.SameCoordinates,Original*%
%TF.FileFunction,Copper,L1,Top*%
%TF.FilePolarity,Positive*%
%FSLAX46Y46*%
G04 Gerber Fmt 4.6, Leading zero omitted, Abs format (unit mm)*
G04 Created by KiCad (PCBNEW (6.99.0)) date 2022-05-24 21:05:52*
%MOMM*%
%LPD*%
G01*
G04 APERTURE LIST*
G04 Aperture macros list*
%AMRoundRect*
0 Rectangle with rounded corners*
0 $1 Rounding radius*
0 $2 $3 $4 $5 $6 $7 $8 $9 X,Y pos of 4 corners*
0 Add a 4 corners polygon primitive as box body*
4,1,4,$2,$3,$4,$5,$6,$7,$8,$9,$2,$3,0*
0 Add four circle primitives for the rounded corners*
1,1,$1+$1,$2,$3*
1,1,$1+$1,$4,$5*
1,1,$1+$1,$6,$7*
1,1,$1+$1,$8,$9*
0 Add four rect primitives between the rounded corners*
20,1,$1+$1,$2,$3,$4,$5,0*
20,1,$1+$1,$4,$5,$6,$7,0*
20,1,$1+$1,$6,$7,$8,$9,0*
20,1,$1+$1,$8,$9,$2,$3,0*%
G04 Aperture macros list end*
%TA.AperFunction,SMDPad,CuDef*%
%ADD10RoundRect,0.140000X0.170000X-0.140000X0.170000X0.140000X-0.170000X0.140000X-0.170000X-0.140000X0*%
%TD*%
%TA.AperFunction,SMDPad,CuDef*%
%ADD11RoundRect,0.135000X0.135000X0.185000X-0.135000X0.185000X-0.135000X-0.185000X0.135000X-0.185000X0*%
%TD*%
%TA.AperFunction,SMDPad,CuDef*%
%ADD12RoundRect,0.218750X-0.218750X-0.256250X0.218750X-0.256250X0.218750X0.256250X-0.218750X0.256250X0*%
%TD*%
%TA.AperFunction,SMDPad,CuDef*%
%ADD13R,0.370000X0.450000*%
%TD*%
%TA.AperFunction,SMDPad,CuDef*%
%ADD14R,0.270000X0.450000*%
%TD*%
%TA.AperFunction,SMDPad,CuDef*%
%ADD15R,0.450000X0.270000*%
%TD*%
%TA.AperFunction,ComponentPad*%
%ADD16C,0.808000*%
%TD*%
%TA.AperFunction,ViaPad*%
%ADD17C,0.800000*%
%TD*%
%TA.AperFunction,Conductor*%
%ADD18C,0.200000*%
%TD*%
G04 APERTURE END LIST*
D10*
%TO.P,C1,1*%
%TO.N,Net-(C1-Pad1)*%
X100838000Y-78458000D03*
%TO.P,C1,2*%
%TO.N,Net-(C1-Pad2)*%
X100838000Y-77498000D03*
%TD*%
D11*
%TO.P,R1,1*%
%TO.N,Net-(C1-Pad1)*%
X103888000Y-79756000D03*
%TO.P,R1,2*%
%TO.N,Net-(D1-Pad2)*%
X102868000Y-79756000D03*
%TD*%
D12*
%TO.P,D1,1,K*%
%TO.N,Net-(C1-Pad2)*%
X54584500Y-54610000D03*
%TO.P,D1,2,A*%
%TO.N,Net-(D1-Pad2)*%
X56159500Y-54610000D03*
%TD*%
D13*
%TO.P,U1,1,LA*%
%TO.N,Net-(U1-Pad1)*%
X103420000Y-76616000D03*
D14*
%TO.P,U1,2,VSS*%
%TO.N,Net-(C1-Pad2)*%
X102870000Y-76616000D03*
%TO.P,U1,3,SCL*%
%TO.N,unconnected-(U1-Pad3)*%
X102370000Y-76616000D03*
D15*
%TO.P,U1,4,FD*%
%TO.N,unconnected-(U1-Pad4)*%
X102270000Y-77216000D03*
D14*
%TO.P,U1,5,SDA*%
%TO.N,unconnected-(U1-Pad5)*%
X102370000Y-77816000D03*
%TO.P,U1,6,VCC*%
%TO.N,Net-(C1-Pad1)*%
X102870000Y-77816000D03*
%TO.P,U1,7,VOUT*%
X103370000Y-77816000D03*
D15*
%TO.P,U1,8,LB*%
%TO.N,Net-(U1-Pad8)*%
X103470000Y-77216000D03*
%TD*%
D16*
%TO.P,U2,P$2*%
%TO.N,Net-(U1-Pad8)*%
X111633000Y-77851000D03*
%TO.P,U2,P$1*%
%TO.N,Net-(U1-Pad1)*%
X107823000Y-76581000D03*
%TD*%
D17*
%TO.N,Net-(D1-Pad2)*%
X101092000Y-80264000D03*
X55372000Y-52832000D03*
%TO.N,Net-(C1-Pad2)*%
X53340000Y-57150000D03*
X99822000Y-79502000D03*
%TD*%
D18*
%TO.N,Net-(U1-Pad8)*%
X111633000Y-77851000D02*
X111506000Y-77724000D01*
X111506000Y-77724000D02*
X107188000Y-77724000D01*
X107188000Y-77724000D02*
X106680000Y-77216000D01*
X106680000Y-77216000D02*
X103470000Y-77216000D01*
%TO.N,Net-(U1-Pad1)*%
X107188000Y-75946000D02*
X107823000Y-76581000D01*
X107188000Y-75946000D02*
X104090000Y-75946000D01*
X104090000Y-75946000D02*
X103420000Y-76616000D01*
%TO.N,Net-(C1-Pad2)*%
X102870000Y-76616000D02*
X102870000Y-75946000D01*
X102616000Y-75692000D02*
X101346000Y-75692000D01*
X100838000Y-76200000D02*
X100838000Y-77498000D01*
X102870000Y-75946000D02*
X102616000Y-75692000D01*
X101346000Y-75692000D02*
X100838000Y-76200000D01*
%TO.N,Net-(C1-Pad1)*%
X100838000Y-78740000D02*
X100838000Y-78458000D01*
X103888000Y-78334000D02*
X103370000Y-77816000D01*
X102644000Y-78966000D02*
X101064000Y-78966000D01*
X102870000Y-78740000D02*
X102644000Y-78966000D01*
X102870000Y-77816000D02*
X102870000Y-78740000D01*
X101064000Y-78966000D02*
X100838000Y-78740000D01*
X102870000Y-77816000D02*
X103370000Y-77816000D01*
X103888000Y-79756000D02*
X103888000Y-78334000D01*
%TO.N,Net-(D1-Pad2)*%
X56159500Y-54610000D02*
X56159500Y-53619500D01*
X56159500Y-53619500D02*
X55880000Y-53340000D01*
X55880000Y-53340000D02*
X55372000Y-52832000D01*
X101092000Y-80264000D02*
X101600000Y-79756000D01*
X101600000Y-79756000D02*
X102868000Y-79756000D01*
%TO.N,Net-(C1-Pad2)*%
X100838000Y-77498000D02*
X100302000Y-77498000D01*
X54584500Y-54610000D02*
X53340000Y-55854500D01*
X100302000Y-77498000D02*
X99822000Y-77978000D01*
X99822000Y-77978000D02*
X99822000Y-79502000D01*
X100810000Y-77470000D02*
X100838000Y-77498000D01*
X53340000Y-55854500D02*
X53340000Y-57150000D01*
%TD*%
%TA.AperFunction,Conductor*%
%TO.N,Net-(C1-Pad2)*%
G36*
X54611429Y-53106002D02*
G01*
X54656859Y-53158195D01*
X54658083Y-53161876D01*
X54681215Y-53200071D01*
X54745096Y-53305551D01*
X54748908Y-53311846D01*
X54753797Y-53316909D01*
X54753798Y-53316910D01*
X54865183Y-53432252D01*
X54898115Y-53495148D01*
X54891815Y-53565865D01*
X54863804Y-53601954D01*
X54865604Y-53603514D01*
X54840171Y-53632865D01*
X54838500Y-53640548D01*
X54838500Y-55574885D01*
X54842975Y-55590124D01*
X54844365Y-55591329D01*
X54851321Y-55592842D01*
X54854782Y-55592663D01*
X54946021Y-55583196D01*
X54959417Y-55580303D01*
X55106687Y-55531170D01*
X55119866Y-55524996D01*
X55251514Y-55443530D01*
X55262915Y-55434494D01*
X55372316Y-55324902D01*
X55434598Y-55290823D01*
X55505419Y-55295826D01*
X55538194Y-55313957D01*
X55638035Y-55390568D01*
X55784053Y-55451050D01*
X55901405Y-55466500D01*
X56159437Y-55466500D01*
X56417594Y-55466499D01*
X56421678Y-55465961D01*
X56421683Y-55465961D01*
X56526759Y-55452128D01*
X56526760Y-55452128D01*
X56534947Y-55451050D01*
X56680965Y-55390568D01*
X56806354Y-55294354D01*
X56902568Y-55168965D01*
X56963050Y-55022947D01*
X56978500Y-54905595D01*
X56978499Y-54314406D01*
X56976902Y-54302270D01*
X56964128Y-54205241D01*
X56964128Y-54205240D01*
X56963050Y-54197053D01*
X56902568Y-54051035D01*
X56806354Y-53925646D01*
X56795470Y-53917294D01*
X56690296Y-53836592D01*
X56648429Y-53779254D01*
X56641000Y-53736629D01*
X56641000Y-53687551D01*
X56642261Y-53676264D01*
X56641684Y-53676218D01*
X56642404Y-53667267D01*
X56644385Y-53658513D01*
X56641242Y-53607856D01*
X56641000Y-53600053D01*
X56641000Y-53584929D01*
X56639634Y-53575389D01*
X56638604Y-53565335D01*
X56636400Y-53529817D01*
X56635844Y-53520855D01*
X56632795Y-53512409D01*
X56631627Y-53506770D01*
X56629283Y-53497369D01*
X56627670Y-53491854D01*
X56626398Y-53482969D01*
X56607957Y-53442409D01*
X56604145Y-53433044D01*
X56592062Y-53399574D01*
X56592058Y-53399567D01*
X56589011Y-53391126D01*
X56583716Y-53383878D01*
X56581015Y-53378798D01*
X56576118Y-53370417D01*
X56573027Y-53365584D01*
X56569312Y-53357414D01*
X56540217Y-53323648D01*
X56533941Y-53315743D01*
X56529371Y-53309488D01*
X56526495Y-53305551D01*
X56522039Y-53301095D01*
X56521785Y-53300629D01*
X56519890Y-53298417D01*
X56520358Y-53298016D01*
X56488013Y-53238783D01*
X56493078Y-53167968D01*
X56535625Y-53111132D01*
X56602145Y-53086321D01*
X56611134Y-53086000D01*
X105792000Y-53086000D01*
X105860121Y-53106002D01*
X105906614Y-53159658D01*
X105918000Y-53212000D01*
X105918000Y-75338500D01*
X105897998Y-75406621D01*
X105844342Y-75453114D01*
X105792000Y-75464500D01*
X104158044Y-75464500D01*
X104146761Y-75463239D01*
X104146715Y-75463817D01*
X104137768Y-75463097D01*
X104129012Y-75461116D01*
X104078366Y-75464258D01*
X104070564Y-75464500D01*
X104055429Y-75464500D01*
X104047181Y-75465681D01*
X104045881Y-75465867D01*
X104035831Y-75466896D01*
X104010031Y-75468497D01*
X103991354Y-75469656D01*
X103982905Y-75472706D01*
X103977276Y-75473872D01*
X103967869Y-75476218D01*
X103962360Y-75477829D01*
X103953469Y-75479102D01*
X103945296Y-75482818D01*
X103912900Y-75497547D01*
X103903540Y-75501357D01*
X103861626Y-75516489D01*
X103854380Y-75521782D01*
X103849308Y-75524479D01*
X103840917Y-75529382D01*
X103836084Y-75532473D01*
X103827914Y-75536188D01*
X103794148Y-75565283D01*
X103786243Y-75571559D01*
X103776051Y-75579005D01*
X103765838Y-75589218D01*
X103758992Y-75595575D01*
X103723428Y-75626219D01*
X103718544Y-75633753D01*
X103712645Y-75640516D01*
X103712583Y-75640462D01*
X103704057Y-75650999D01*
X103421745Y-75933311D01*
X103359433Y-75967337D01*
X103288618Y-75962272D01*
X103266654Y-75950271D01*
X103266517Y-75950522D01*
X103243054Y-75937676D01*
X103122606Y-75892522D01*
X103107351Y-75888895D01*
X103056486Y-75883369D01*
X103049672Y-75883000D01*
X103023115Y-75883000D01*
X103007876Y-75887475D01*
X103006671Y-75888865D01*
X103005000Y-75896548D01*
X103005000Y-76029244D01*
X102984998Y-76097365D01*
X102968170Y-76118265D01*
X102959180Y-76127270D01*
X102896896Y-76161347D01*
X102826076Y-76156341D01*
X102780991Y-76127420D01*
X102771979Y-76118424D01*
X102737902Y-76056140D01*
X102735000Y-76029254D01*
X102735000Y-75901116D01*
X102730525Y-75885877D01*
X102729135Y-75884672D01*
X102721452Y-75883001D01*
X102690331Y-75883001D01*
X102683510Y-75883371D01*
X102632648Y-75888895D01*
X102617396Y-75892521D01*
X102496946Y-75937676D01*
X102481352Y-75946214D01*
X102430499Y-75984326D01*
X102363993Y-76009174D01*
X102354934Y-76009500D01*
X102198842Y-76009500D01*
X102194294Y-76010170D01*
X102194287Y-76010170D01*
X102133541Y-76019112D01*
X102133539Y-76019113D01*
X102123856Y-76020538D01*
X102115068Y-76024853D01*
X102115067Y-76024853D01*
X102019197Y-76071923D01*
X102019196Y-76071924D01*
X102009849Y-76076513D01*
X101920120Y-76166399D01*
X101864345Y-76280503D01*
X101853500Y-76354842D01*
X101853500Y-76680677D01*
X101833498Y-76748798D01*
X101816675Y-76769693D01*
X101730120Y-76856399D01*
X101725546Y-76865757D01*
X101725545Y-76865758D01*
X101706726Y-76904258D01*
X101658841Y-76956675D01*
X101590219Y-76974883D01*
X101522647Y-76953100D01*
X101504431Y-76938021D01*
X101413926Y-76847516D01*
X101401499Y-76837876D01*
X101274220Y-76762604D01*
X101259784Y-76756357D01*
X101116359Y-76714688D01*
X101108391Y-76713232D01*
X101094969Y-76716052D01*
X101092000Y-76727513D01*
X101092000Y-77626000D01*
X101071998Y-77694121D01*
X101018342Y-77740614D01*
X100966000Y-77752000D01*
X100044442Y-77752000D01*
X100030911Y-77755973D01*
X100029776Y-77763871D01*
X100066357Y-77889784D01*
X100072604Y-77904220D01*
X100147878Y-78031502D01*
X100151916Y-78036708D01*
X100177863Y-78102793D01*
X100169508Y-78160315D01*
X100159773Y-78184902D01*
X100159770Y-78184913D01*
X100156792Y-78192435D01*
X100146500Y-78277484D01*
X100146500Y-78638516D01*
X100156792Y-78723565D01*
X100209390Y-78856413D01*
X100295777Y-78970223D01*
X100409587Y-79056610D01*
X100487044Y-79087278D01*
X100517671Y-79105936D01*
X100518219Y-79106572D01*
X100525754Y-79111456D01*
X100532517Y-79117356D01*
X100532463Y-79117418D01*
X100542999Y-79125943D01*
X100675412Y-79258356D01*
X100682499Y-79267226D01*
X100682941Y-79266850D01*
X100688757Y-79273683D01*
X100693549Y-79281279D01*
X100731602Y-79314886D01*
X100737274Y-79320218D01*
X100747973Y-79330917D01*
X100751550Y-79333598D01*
X100751555Y-79333602D01*
X100755689Y-79336700D01*
X100763532Y-79343085D01*
X100773096Y-79351532D01*
X100810913Y-79411619D01*
X100810241Y-79482613D01*
X100771294Y-79541973D01*
X100755718Y-79553283D01*
X100607816Y-79644273D01*
X100602781Y-79649204D01*
X100602778Y-79649206D01*
X100487581Y-79762016D01*
X100482549Y-79766944D01*
X100387572Y-79914319D01*
X100327606Y-80079074D01*
X100305632Y-80253020D01*
X100322741Y-80427511D01*
X100378083Y-80593876D01*
X100468908Y-80743846D01*
X100473797Y-80748909D01*
X100473798Y-80748910D01*
X100549749Y-80827559D01*
X100590701Y-80869966D01*
X100596593Y-80873821D01*
X100596597Y-80873825D01*
X100681457Y-80929355D01*
X100737410Y-80965970D01*
X100744014Y-80968426D01*
X100895140Y-81024629D01*
X100895142Y-81024629D01*
X100901742Y-81027084D01*
X100908725Y-81028016D01*
X100908726Y-81028016D01*
X101068549Y-81049342D01*
X101068553Y-81049342D01*
X101075530Y-81050273D01*
X101082541Y-81049635D01*
X101082545Y-81049635D01*
X101220105Y-81037115D01*
X101250137Y-81034382D01*
X101256839Y-81032204D01*
X101256841Y-81032204D01*
X101410185Y-80982380D01*
X101410188Y-80982379D01*
X101416884Y-80980203D01*
X101567484Y-80890427D01*
X101572578Y-80885576D01*
X101572582Y-80885573D01*
X101641833Y-80819625D01*
X101694452Y-80769517D01*
X101791477Y-80623482D01*
X101853737Y-80459581D01*
X101867358Y-80362662D01*
X101869705Y-80345964D01*
X101898993Y-80281290D01*
X101958597Y-80242717D01*
X101994479Y-80237500D01*
X102247031Y-80237500D01*
X102315152Y-80257502D01*
X102347391Y-80287317D01*
X102364346Y-80309654D01*
X102477064Y-80395213D01*
X102608639Y-80447307D01*
X102616677Y-80448280D01*
X102616678Y-80448280D01*
X102646654Y-80451907D01*
X102692871Y-80457500D01*
X102867861Y-80457500D01*
X103043128Y-80457499D01*
X103085516Y-80452370D01*
X103119331Y-80448279D01*
X103119334Y-80448278D01*
X103127361Y-80447307D01*
X103134878Y-80444331D01*
X103134881Y-80444330D01*
X103202369Y-80417610D01*
X103258936Y-80395213D01*
X103265777Y-80390020D01*
X103265781Y-80390018D01*
X103301820Y-80362662D01*
X103368173Y-80337408D01*
X103437647Y-80352036D01*
X103454180Y-80362662D01*
X103490219Y-80390018D01*
X103490223Y-80390020D01*
X103497064Y-80395213D01*
X103628639Y-80447307D01*
X103636677Y-80448280D01*
X103636678Y-80448280D01*
X103666654Y-80451907D01*
X103712871Y-80457500D01*
X103887861Y-80457500D01*
X104063128Y-80457499D01*
X104105516Y-80452370D01*
X104139331Y-80448279D01*
X104139334Y-80448278D01*
X104147361Y-80447307D01*
X104154878Y-80444331D01*
X104154881Y-80444330D01*
X104222369Y-80417610D01*
X104278936Y-80395213D01*
X104391654Y-80309654D01*
X104408608Y-80287319D01*
X104472018Y-80203780D01*
X104477213Y-80196936D01*
X104529307Y-80065361D01*
X104539500Y-79981129D01*
X104539499Y-79530872D01*
X104529307Y-79446639D01*
X104523193Y-79431195D01*
X104485779Y-79336700D01*
X104477213Y-79315064D01*
X104395138Y-79206936D01*
X104369884Y-79140583D01*
X104369500Y-79130756D01*
X104369500Y-78402051D01*
X104370761Y-78390764D01*
X104370184Y-78390718D01*
X104370904Y-78381767D01*
X104372885Y-78373013D01*
X104369742Y-78322356D01*
X104369500Y-78314553D01*
X104369500Y-78299429D01*
X104368134Y-78289889D01*
X104367104Y-78279835D01*
X104364900Y-78244317D01*
X104364344Y-78235355D01*
X104361295Y-78226909D01*
X104360127Y-78221270D01*
X104357783Y-78211869D01*
X104356170Y-78206354D01*
X104354898Y-78197469D01*
X104349184Y-78184902D01*
X104336457Y-78156909D01*
X104332645Y-78147544D01*
X104320562Y-78114074D01*
X104320558Y-78114067D01*
X104317511Y-78105626D01*
X104312216Y-78098378D01*
X104309515Y-78093298D01*
X104304618Y-78084917D01*
X104301527Y-78080084D01*
X104297812Y-78071914D01*
X104268717Y-78038148D01*
X104262441Y-78030243D01*
X104257871Y-78023988D01*
X104254995Y-78020051D01*
X104244782Y-78009838D01*
X104238424Y-78002991D01*
X104213642Y-77974230D01*
X104207781Y-77967428D01*
X104200247Y-77962544D01*
X104193484Y-77956645D01*
X104193538Y-77956583D01*
X104183001Y-77948057D01*
X104147539Y-77912595D01*
X104113513Y-77850283D01*
X104118578Y-77779468D01*
X104161125Y-77722632D01*
X104227645Y-77697821D01*
X104236634Y-77697500D01*
X105792000Y-77697500D01*
X105860121Y-77717502D01*
X105906614Y-77771158D01*
X105918000Y-77823500D01*
X105918000Y-101474000D01*
X105897998Y-101542121D01*
X105844342Y-101588614D01*
X105792000Y-101600000D01*
X52450000Y-101600000D01*
X52381879Y-101579998D01*
X52335386Y-101526342D01*
X52324000Y-101474000D01*
X52324000Y-77226605D01*
X100031381Y-77226605D01*
X100031421Y-77240705D01*
X100038691Y-77244000D01*
X100565885Y-77244000D01*
X100581124Y-77239525D01*
X100582329Y-77238135D01*
X100584000Y-77230452D01*
X100584000Y-76729576D01*
X100579656Y-76714781D01*
X100569225Y-76712937D01*
X100559641Y-76714688D01*
X100416216Y-76756357D01*
X100401780Y-76762604D01*
X100274501Y-76837876D01*
X100262074Y-76847516D01*
X100157516Y-76952074D01*
X100147876Y-76964501D01*
X100072604Y-77091780D01*
X100066357Y-77106216D01*
X100031381Y-77226605D01*
X52324000Y-77226605D01*
X52324000Y-54911266D01*
X53639000Y-54911266D01*
X53639337Y-54917782D01*
X53648804Y-55009021D01*
X53651697Y-55022417D01*
X53700830Y-55169687D01*
X53707004Y-55182866D01*
X53788470Y-55314514D01*
X53797506Y-55325915D01*
X53907080Y-55435298D01*
X53918491Y-55444310D01*
X54050291Y-55525553D01*
X54063468Y-55531697D01*
X54210843Y-55580579D01*
X54224210Y-55583445D01*
X54313700Y-55592614D01*
X54327624Y-55588525D01*
X54328829Y-55587135D01*
X54330500Y-55579452D01*
X54330500Y-54882115D01*
X54326025Y-54866876D01*
X54324635Y-54865671D01*
X54316952Y-54864000D01*
X53657115Y-54864000D01*
X53641876Y-54868475D01*
X53640671Y-54869865D01*
X53639000Y-54877548D01*
X53639000Y-54911266D01*
X52324000Y-54911266D01*
X52324000Y-54337885D01*
X53639000Y-54337885D01*
X53643475Y-54353124D01*
X53644865Y-54354329D01*
X53652548Y-54356000D01*
X54312385Y-54356000D01*
X54327624Y-54351525D01*
X54328829Y-54350135D01*
X54330500Y-54342452D01*
X54330500Y-53645115D01*
X54326025Y-53629876D01*
X54324635Y-53628671D01*
X54317679Y-53627158D01*
X54314218Y-53627337D01*
X54222979Y-53636804D01*
X54209583Y-53639697D01*
X54062313Y-53688830D01*
X54049134Y-53695004D01*
X53917486Y-53776470D01*
X53906085Y-53785506D01*
X53796702Y-53895080D01*
X53787690Y-53906491D01*
X53706447Y-54038291D01*
X53700303Y-54051468D01*
X53651421Y-54198843D01*
X53648555Y-54212210D01*
X53639328Y-54302270D01*
X53639000Y-54308685D01*
X53639000Y-54337885D01*
X52324000Y-54337885D01*
X52324000Y-53212000D01*
X52344002Y-53143879D01*
X52397658Y-53097386D01*
X52450000Y-53086000D01*
X54543308Y-53086000D01*
X54611429Y-53106002D01*
G37*
%TD.AperFunction*%
%TD*%
%TA.AperFunction,Conductor*%
%TO.N,Net-(C1-Pad2)*%
G36*
X54611429Y-53106002D02*
G01*
X54656859Y-53158195D01*
X54658083Y-53161876D01*
X54681215Y-53200071D01*
X54745096Y-53305551D01*
X54748908Y-53311846D01*
X54753797Y-53316909D01*
X54753798Y-53316910D01*
X54865183Y-53432252D01*
X54898115Y-53495148D01*
X54891815Y-53565865D01*
X54863804Y-53601954D01*
X54865604Y-53603514D01*
X54840171Y-53632865D01*
X54838500Y-53640548D01*
X54838500Y-55574885D01*
X54842975Y-55590124D01*
X54844365Y-55591329D01*
X54851321Y-55592842D01*
X54854782Y-55592663D01*
X54946021Y-55583196D01*
X54959417Y-55580303D01*
X55106687Y-55531170D01*
X55119866Y-55524996D01*
X55251514Y-55443530D01*
X55262915Y-55434494D01*
X55372316Y-55324902D01*
X55434598Y-55290823D01*
X55505419Y-55295826D01*
X55538194Y-55313957D01*
X55638035Y-55390568D01*
X55784053Y-55451050D01*
X55901405Y-55466500D01*
X56159437Y-55466500D01*
X56417594Y-55466499D01*
X56421678Y-55465961D01*
X56421683Y-55465961D01*
X56526759Y-55452128D01*
X56526760Y-55452128D01*
X56534947Y-55451050D01*
X56680965Y-55390568D01*
X56806354Y-55294354D01*
X56902568Y-55168965D01*
X56963050Y-55022947D01*
X56978500Y-54905595D01*
X56978499Y-54314406D01*
X56976902Y-54302270D01*
X56964128Y-54205241D01*
X56964128Y-54205240D01*
X56963050Y-54197053D01*
X56902568Y-54051035D01*
X56806354Y-53925646D01*
X56795470Y-53917294D01*
X56690296Y-53836592D01*
X56648429Y-53779254D01*
X56641000Y-53736629D01*
X56641000Y-53687551D01*
X56642261Y-53676264D01*
X56641684Y-53676218D01*
X56642404Y-53667267D01*
X56644385Y-53658513D01*
X56641242Y-53607856D01*
X56641000Y-53600053D01*
X56641000Y-53584929D01*
X56639634Y-53575389D01*
X56638604Y-53565335D01*
X56636400Y-53529817D01*
X56635844Y-53520855D01*
X56632795Y-53512409D01*
X56631627Y-53506770D01*
X56629283Y-53497369D01*
X56627670Y-53491854D01*
X56626398Y-53482969D01*
X56607957Y-53442409D01*
X56604145Y-53433044D01*
X56592062Y-53399574D01*
X56592058Y-53399567D01*
X56589011Y-53391126D01*
X56583716Y-53383878D01*
X56581015Y-53378798D01*
X56576118Y-53370417D01*
X56573027Y-53365584D01*
X56569312Y-53357414D01*
X56540217Y-53323648D01*
X56533941Y-53315743D01*
X56529371Y-53309488D01*
X56526495Y-53305551D01*
X56522039Y-53301095D01*
X56521785Y-53300629D01*
X56519890Y-53298417D01*
X56520358Y-53298016D01*
X56488013Y-53238783D01*
X56493078Y-53167968D01*
X56535625Y-53111132D01*
X56602145Y-53086321D01*
X56611134Y-53086000D01*
X105792000Y-53086000D01*
X105860121Y-53106002D01*
X105906614Y-53159658D01*
X105918000Y-53212000D01*
X105918000Y-75338500D01*
X105897998Y-75406621D01*
X105844342Y-75453114D01*
X105792000Y-75464500D01*
X104158044Y-75464500D01*
X104146761Y-75463239D01*
X104146715Y-75463817D01*
X104137768Y-75463097D01*
X104129012Y-75461116D01*
X104078366Y-75464258D01*
X104070564Y-75464500D01*
X104055429Y-75464500D01*
X104047181Y-75465681D01*
X104045881Y-75465867D01*
X104035831Y-75466896D01*
X104010031Y-75468497D01*
X103991354Y-75469656D01*
X103982905Y-75472706D01*
X103977276Y-75473872D01*
X103967869Y-75476218D01*
X103962360Y-75477829D01*
X103953469Y-75479102D01*
X103945296Y-75482818D01*
X103912900Y-75497547D01*
X103903540Y-75501357D01*
X103861626Y-75516489D01*
X103854380Y-75521782D01*
X103849308Y-75524479D01*
X103840917Y-75529382D01*
X103836084Y-75532473D01*
X103827914Y-75536188D01*
X103794148Y-75565283D01*
X103786243Y-75571559D01*
X103776051Y-75579005D01*
X103765838Y-75589218D01*
X103758992Y-75595575D01*
X103723428Y-75626219D01*
X103718544Y-75633753D01*
X103712645Y-75640516D01*
X103712583Y-75640462D01*
X103704057Y-75650999D01*
X103421745Y-75933311D01*
X103359433Y-75967337D01*
X103288618Y-75962272D01*
X103266654Y-75950271D01*
X103266517Y-75950522D01*
X103243054Y-75937676D01*
X103122606Y-75892522D01*
X103107351Y-75888895D01*
X103056486Y-75883369D01*
X103049672Y-75883000D01*
X103023115Y-75883000D01*
X103007876Y-75887475D01*
X103006671Y-75888865D01*
X103005000Y-75896548D01*
X103005000Y-76029244D01*
X102984998Y-76097365D01*
X102968170Y-76118265D01*
X102959180Y-76127270D01*
X102896896Y-76161347D01*
X102826076Y-76156341D01*
X102780991Y-76127420D01*
X102771979Y-76118424D01*
X102737902Y-76056140D01*
X102735000Y-76029254D01*
X102735000Y-75901116D01*
X102730525Y-75885877D01*
X102729135Y-75884672D01*
X102721452Y-75883001D01*
X102690331Y-75883001D01*
X102683510Y-75883371D01*
X102632648Y-75888895D01*
X102617396Y-75892521D01*
X102496946Y-75937676D01*
X102481352Y-75946214D01*
X102430499Y-75984326D01*
X102363993Y-76009174D01*
X102354934Y-76009500D01*
X102198842Y-76009500D01*
X102194294Y-76010170D01*
X102194287Y-76010170D01*
X102133541Y-76019112D01*
X102133539Y-76019113D01*
X102123856Y-76020538D01*
X102115068Y-76024853D01*
X102115067Y-76024853D01*
X102019197Y-76071923D01*
X102019196Y-76071924D01*
X102009849Y-76076513D01*
X101920120Y-76166399D01*
X101864345Y-76280503D01*
X101853500Y-76354842D01*
X101853500Y-76680677D01*
X101833498Y-76748798D01*
X101816675Y-76769693D01*
X101730120Y-76856399D01*
X101725546Y-76865757D01*
X101725545Y-76865758D01*
X101706726Y-76904258D01*
X101658841Y-76956675D01*
X101590219Y-76974883D01*
X101522647Y-76953100D01*
X101504431Y-76938021D01*
X101413926Y-76847516D01*
X101401499Y-76837876D01*
X101274220Y-76762604D01*
X101259784Y-76756357D01*
X101116359Y-76714688D01*
X101108391Y-76713232D01*
X101094969Y-76716052D01*
X101092000Y-76727513D01*
X101092000Y-77626000D01*
X101071998Y-77694121D01*
X101018342Y-77740614D01*
X100966000Y-77752000D01*
X100044442Y-77752000D01*
X100030911Y-77755973D01*
X100029776Y-77763871D01*
X100066357Y-77889784D01*
X100072604Y-77904220D01*
X100147878Y-78031502D01*
X100151916Y-78036708D01*
X100177863Y-78102793D01*
X100169508Y-78160315D01*
X100159773Y-78184902D01*
X100159770Y-78184913D01*
X100156792Y-78192435D01*
X100146500Y-78277484D01*
X100146500Y-78638516D01*
X100156792Y-78723565D01*
X100209390Y-78856413D01*
X100295777Y-78970223D01*
X100409587Y-79056610D01*
X100487044Y-79087278D01*
X100517671Y-79105936D01*
X100518219Y-79106572D01*
X100525754Y-79111456D01*
X100532517Y-79117356D01*
X100532463Y-79117418D01*
X100542999Y-79125943D01*
X100675412Y-79258356D01*
X100682499Y-79267226D01*
X100682941Y-79266850D01*
X100688757Y-79273683D01*
X100693549Y-79281279D01*
X100731602Y-79314886D01*
X100737274Y-79320218D01*
X100747973Y-79330917D01*
X100751550Y-79333598D01*
X100751555Y-79333602D01*
X100755689Y-79336700D01*
X100763532Y-79343085D01*
X100773096Y-79351532D01*
X100810913Y-79411619D01*
X100810241Y-79482613D01*
X100771294Y-79541973D01*
X100755718Y-79553283D01*
X100607816Y-79644273D01*
X100602781Y-79649204D01*
X100602778Y-79649206D01*
X100487581Y-79762016D01*
X100482549Y-79766944D01*
X100387572Y-79914319D01*
X100327606Y-80079074D01*
X100305632Y-80253020D01*
X100322741Y-80427511D01*
X100378083Y-80593876D01*
X100468908Y-80743846D01*
X100473797Y-80748909D01*
X100473798Y-80748910D01*
X100549749Y-80827559D01*
X100590701Y-80869966D01*
X100596593Y-80873821D01*
X100596597Y-80873825D01*
X100681457Y-80929355D01*
X100737410Y-80965970D01*
X100744014Y-80968426D01*
X100895140Y-81024629D01*
X100895142Y-81024629D01*
X100901742Y-81027084D01*
X100908725Y-81028016D01*
X100908726Y-81028016D01*
X101068549Y-81049342D01*
X101068553Y-81049342D01*
X101075530Y-81050273D01*
X101082541Y-81049635D01*
X101082545Y-81049635D01*
X101220105Y-81037115D01*
X101250137Y-81034382D01*
X101256839Y-81032204D01*
X101256841Y-81032204D01*
X101410185Y-80982380D01*
X101410188Y-80982379D01*
X101416884Y-80980203D01*
X101567484Y-80890427D01*
X101572578Y-80885576D01*
X101572582Y-80885573D01*
X101641833Y-80819625D01*
X101694452Y-80769517D01*
X101791477Y-80623482D01*
X101853737Y-80459581D01*
X101867358Y-80362662D01*
X101869705Y-80345964D01*
X101898993Y-80281290D01*
X101958597Y-80242717D01*
X101994479Y-80237500D01*
X102247031Y-80237500D01*
X102315152Y-80257502D01*
X102347391Y-80287317D01*
X102364346Y-80309654D01*
X102477064Y-80395213D01*
X102608639Y-80447307D01*
X102616677Y-80448280D01*
X102616678Y-80448280D01*
X102646654Y-80451907D01*
X102692871Y-80457500D01*
X102867861Y-80457500D01*
X103043128Y-80457499D01*
X103085516Y-80452370D01*
X103119331Y-80448279D01*
X103119334Y-80448278D01*
X103127361Y-80447307D01*
X103134878Y-80444331D01*
X103134881Y-80444330D01*
X103202369Y-80417610D01*
X103258936Y-80395213D01*
X103265777Y-80390020D01*
X103265781Y-80390018D01*
X103301820Y-80362662D01*
X103368173Y-80337408D01*
X103437647Y-80352036D01*
X103454180Y-80362662D01*
X103490219Y-80390018D01*
X103490223Y-80390020D01*
X103497064Y-80395213D01*
X103628639Y-80447307D01*
X103636677Y-80448280D01*
X103636678Y-80448280D01*
X103666654Y-80451907D01*
X103712871Y-80457500D01*
X103887861Y-80457500D01*
X104063128Y-80457499D01*
X104105516Y-80452370D01*
X104139331Y-80448279D01*
X104139334Y-80448278D01*
X104147361Y-80447307D01*
X104154878Y-80444331D01*
X104154881Y-80444330D01*
X104222369Y-80417610D01*
X104278936Y-80395213D01*
X104391654Y-80309654D01*
X104408608Y-80287319D01*
X104472018Y-80203780D01*
X104477213Y-80196936D01*
X104529307Y-80065361D01*
X104539500Y-79981129D01*
X104539499Y-79530872D01*
X104529307Y-79446639D01*
X104523193Y-79431195D01*
X104485779Y-79336700D01*
X104477213Y-79315064D01*
X104395138Y-79206936D01*
X104369884Y-79140583D01*
X104369500Y-79130756D01*
X104369500Y-78402051D01*
X104370761Y-78390764D01*
X104370184Y-78390718D01*
X104370904Y-78381767D01*
X104372885Y-78373013D01*
X104369742Y-78322356D01*
X104369500Y-78314553D01*
X104369500Y-78299429D01*
X104368134Y-78289889D01*
X104367104Y-78279835D01*
X104364900Y-78244317D01*
X104364344Y-78235355D01*
X104361295Y-78226909D01*
X104360127Y-78221270D01*
X104357783Y-78211869D01*
X104356170Y-78206354D01*
X104354898Y-78197469D01*
X104349184Y-78184902D01*
X104336457Y-78156909D01*
X104332645Y-78147544D01*
X104320562Y-78114074D01*
X104320558Y-78114067D01*
X104317511Y-78105626D01*
X104312216Y-78098378D01*
X104309515Y-78093298D01*
X104304618Y-78084917D01*
X104301527Y-78080084D01*
X104297812Y-78071914D01*
X104268717Y-78038148D01*
X104262441Y-78030243D01*
X104257871Y-78023988D01*
X104254995Y-78020051D01*
X104244782Y-78009838D01*
X104238424Y-78002991D01*
X104213642Y-77974230D01*
X104207781Y-77967428D01*
X104200247Y-77962544D01*
X104193484Y-77956645D01*
X104193538Y-77956583D01*
X104183001Y-77948057D01*
X104147539Y-77912595D01*
X104113513Y-77850283D01*
X104118578Y-77779468D01*
X104161125Y-77722632D01*
X104227645Y-77697821D01*
X104236634Y-77697500D01*
X105792000Y-77697500D01*
X105860121Y-77717502D01*
X105906614Y-77771158D01*
X105918000Y-77823500D01*
X105918000Y-101474000D01*
X105897998Y-101542121D01*
X105844342Y-101588614D01*
X105792000Y-101600000D01*
X52450000Y-101600000D01*
X52381879Y-101579998D01*
X52335386Y-101526342D01*
X52324000Y-101474000D01*
X52324000Y-77226605D01*
X100031381Y-77226605D01*
X100031421Y-77240705D01*
X100038691Y-77244000D01*
X100565885Y-77244000D01*
X100581124Y-77239525D01*
X100582329Y-77238135D01*
X100584000Y-77230452D01*
X100584000Y-76729576D01*
X100579656Y-76714781D01*
X100569225Y-76712937D01*
X100559641Y-76714688D01*
X100416216Y-76756357D01*
X100401780Y-76762604D01*
X100274501Y-76837876D01*
X100262074Y-76847516D01*
X100157516Y-76952074D01*
X100147876Y-76964501D01*
X100072604Y-77091780D01*
X100066357Y-77106216D01*
X100031381Y-77226605D01*
X52324000Y-77226605D01*
X52324000Y-54911266D01*
X53639000Y-54911266D01*
X53639337Y-54917782D01*
X53648804Y-55009021D01*
X53651697Y-55022417D01*
X53700830Y-55169687D01*
X53707004Y-55182866D01*
X53788470Y-55314514D01*
X53797506Y-55325915D01*
X53907080Y-55435298D01*
X53918491Y-55444310D01*
X54050291Y-55525553D01*
X54063468Y-55531697D01*
X54210843Y-55580579D01*
X54224210Y-55583445D01*
X54313700Y-55592614D01*
X54327624Y-55588525D01*
X54328829Y-55587135D01*
X54330500Y-55579452D01*
X54330500Y-54882115D01*
X54326025Y-54866876D01*
X54324635Y-54865671D01*
X54316952Y-54864000D01*
X53657115Y-54864000D01*
X53641876Y-54868475D01*
X53640671Y-54869865D01*
X53639000Y-54877548D01*
X53639000Y-54911266D01*
X52324000Y-54911266D01*
X52324000Y-54337885D01*
X53639000Y-54337885D01*
X53643475Y-54353124D01*
X53644865Y-54354329D01*
X53652548Y-54356000D01*
X54312385Y-54356000D01*
X54327624Y-54351525D01*
X54328829Y-54350135D01*
X54330500Y-54342452D01*
X54330500Y-53645115D01*
X54326025Y-53629876D01*
X54324635Y-53628671D01*
X54317679Y-53627158D01*
X54314218Y-53627337D01*
X54222979Y-53636804D01*
X54209583Y-53639697D01*
X54062313Y-53688830D01*
X54049134Y-53695004D01*
X53917486Y-53776470D01*
X53906085Y-53785506D01*
X53796702Y-53895080D01*
X53787690Y-53906491D01*
X53706447Y-54038291D01*
X53700303Y-54051468D01*
X53651421Y-54198843D01*
X53648555Y-54212210D01*
X53639328Y-54302270D01*
X53639000Y-54308685D01*
X53639000Y-54337885D01*
X52324000Y-54337885D01*
X52324000Y-53212000D01*
X52344002Y-53143879D01*
X52397658Y-53097386D01*
X52450000Y-53086000D01*
X54543308Y-53086000D01*
X54611429Y-53106002D01*
G37*
%TD.AperFunction*%
%TD*%
M02*
