%TF.GenerationSoftware,KiCad,Pcbnew,(6.99.0)*%
%TF.CreationDate,2022-05-24T21:05:52-07:00*%
%TF.ProjectId,Card,43617264-2e6b-4696-9361-645f70636258,rev?*%
%TF.SameCoordinates,Original*%
%TF.FileFunction,Paste,Top*%
%TF.FilePolarity,Positive*%
%FSLAX46Y46*%
G04 Gerber Fmt 4.6, Leading zero omitted, Abs format (unit mm)*
G04 Created by KiCad (PCBNEW (6.99.0)) date 2022-05-24 21:05:52*
%MOMM*%
%LPD*%
G01*
G04 APERTURE LIST*
G04 Aperture macros list*
%AMRoundRect*
0 Rectangle with rounded corners*
0 $1 Rounding radius*
0 $2 $3 $4 $5 $6 $7 $8 $9 X,Y pos of 4 corners*
0 Add a 4 corners polygon primitive as box body*
4,1,4,$2,$3,$4,$5,$6,$7,$8,$9,$2,$3,0*
0 Add four circle primitives for the rounded corners*
1,1,$1+$1,$2,$3*
1,1,$1+$1,$4,$5*
1,1,$1+$1,$6,$7*
1,1,$1+$1,$8,$9*
0 Add four rect primitives between the rounded corners*
20,1,$1+$1,$2,$3,$4,$5,0*
20,1,$1+$1,$4,$5,$6,$7,0*
20,1,$1+$1,$6,$7,$8,$9,0*
20,1,$1+$1,$8,$9,$2,$3,0*%
G04 Aperture macros list end*
%ADD10C,0.010000*%
%ADD11RoundRect,0.140000X0.170000X-0.140000X0.170000X0.140000X-0.170000X0.140000X-0.170000X-0.140000X0*%
%ADD12RoundRect,0.135000X0.135000X0.185000X-0.135000X0.185000X-0.135000X-0.185000X0.135000X-0.185000X0*%
%ADD13RoundRect,0.218750X-0.218750X-0.256250X0.218750X-0.256250X0.218750X0.256250X-0.218750X0.256250X0*%
G04 APERTURE END LIST*
D10*
%TO.C,U1*%
X103580000Y-77016000D02*
X103580000Y-77416000D01*
X103580000Y-77416000D02*
X103360000Y-77416000D01*
X103360000Y-77416000D02*
X103360000Y-77016000D01*
X103360000Y-77016000D02*
X103580000Y-77016000D01*
G36*
X103580000Y-77416000D02*
G01*
X103360000Y-77416000D01*
X103360000Y-77016000D01*
X103580000Y-77016000D01*
X103580000Y-77416000D01*
G37*
X103580000Y-77416000D02*
X103360000Y-77416000D01*
X103360000Y-77016000D01*
X103580000Y-77016000D01*
X103580000Y-77416000D01*
X102980000Y-76416000D02*
X102980000Y-76816000D01*
X102980000Y-76816000D02*
X102760000Y-76816000D01*
X102760000Y-76816000D02*
X102760000Y-76416000D01*
X102760000Y-76416000D02*
X102980000Y-76416000D01*
G36*
X102980000Y-76816000D02*
G01*
X102760000Y-76816000D01*
X102760000Y-76416000D01*
X102980000Y-76416000D01*
X102980000Y-76816000D01*
G37*
X102980000Y-76816000D02*
X102760000Y-76816000D01*
X102760000Y-76416000D01*
X102980000Y-76416000D01*
X102980000Y-76816000D01*
X103480000Y-77616000D02*
X103480000Y-78016000D01*
X103480000Y-78016000D02*
X103260000Y-78016000D01*
X103260000Y-78016000D02*
X103260000Y-77616000D01*
X103260000Y-77616000D02*
X103480000Y-77616000D01*
G36*
X103480000Y-78016000D02*
G01*
X103260000Y-78016000D01*
X103260000Y-77616000D01*
X103480000Y-77616000D01*
X103480000Y-78016000D01*
G37*
X103480000Y-78016000D02*
X103260000Y-78016000D01*
X103260000Y-77616000D01*
X103480000Y-77616000D01*
X103480000Y-78016000D01*
X103580000Y-76416000D02*
X103580000Y-76816000D01*
X103580000Y-76816000D02*
X103260000Y-76816000D01*
X103260000Y-76816000D02*
X103260000Y-76416000D01*
X103260000Y-76416000D02*
X103580000Y-76416000D01*
G36*
X103580000Y-76816000D02*
G01*
X103260000Y-76816000D01*
X103260000Y-76416000D01*
X103580000Y-76416000D01*
X103580000Y-76816000D01*
G37*
X103580000Y-76816000D02*
X103260000Y-76816000D01*
X103260000Y-76416000D01*
X103580000Y-76416000D01*
X103580000Y-76816000D01*
X102480000Y-76416000D02*
X102480000Y-76816000D01*
X102480000Y-76816000D02*
X102260000Y-76816000D01*
X102260000Y-76816000D02*
X102260000Y-76416000D01*
X102260000Y-76416000D02*
X102480000Y-76416000D01*
G36*
X102480000Y-76816000D02*
G01*
X102260000Y-76816000D01*
X102260000Y-76416000D01*
X102480000Y-76416000D01*
X102480000Y-76816000D01*
G37*
X102480000Y-76816000D02*
X102260000Y-76816000D01*
X102260000Y-76416000D01*
X102480000Y-76416000D01*
X102480000Y-76816000D01*
X102980000Y-77616000D02*
X102980000Y-78016000D01*
X102980000Y-78016000D02*
X102760000Y-78016000D01*
X102760000Y-78016000D02*
X102760000Y-77616000D01*
X102760000Y-77616000D02*
X102980000Y-77616000D01*
G36*
X102980000Y-78016000D02*
G01*
X102760000Y-78016000D01*
X102760000Y-77616000D01*
X102980000Y-77616000D01*
X102980000Y-78016000D01*
G37*
X102980000Y-78016000D02*
X102760000Y-78016000D01*
X102760000Y-77616000D01*
X102980000Y-77616000D01*
X102980000Y-78016000D01*
X102380000Y-77016000D02*
X102380000Y-77416000D01*
X102380000Y-77416000D02*
X102160000Y-77416000D01*
X102160000Y-77416000D02*
X102160000Y-77016000D01*
X102160000Y-77016000D02*
X102380000Y-77016000D01*
G36*
X102380000Y-77416000D02*
G01*
X102160000Y-77416000D01*
X102160000Y-77016000D01*
X102380000Y-77016000D01*
X102380000Y-77416000D01*
G37*
X102380000Y-77416000D02*
X102160000Y-77416000D01*
X102160000Y-77016000D01*
X102380000Y-77016000D01*
X102380000Y-77416000D01*
X102480000Y-77616000D02*
X102480000Y-78016000D01*
X102480000Y-78016000D02*
X102260000Y-78016000D01*
X102260000Y-78016000D02*
X102260000Y-77616000D01*
X102260000Y-77616000D02*
X102480000Y-77616000D01*
G36*
X102480000Y-78016000D02*
G01*
X102260000Y-78016000D01*
X102260000Y-77616000D01*
X102480000Y-77616000D01*
X102480000Y-78016000D01*
G37*
X102480000Y-78016000D02*
X102260000Y-78016000D01*
X102260000Y-77616000D01*
X102480000Y-77616000D01*
X102480000Y-78016000D01*
%TD*%
D11*
%TO.C,C1*%
X100838000Y-78458000D03*
X100838000Y-77498000D03*
%TD*%
D12*
%TO.C,R1*%
X103888000Y-79756000D03*
X102868000Y-79756000D03*
%TD*%
D13*
%TO.C,D1*%
X54584500Y-54610000D03*
X56159500Y-54610000D03*
%TD*%
M02*
